<?xml version="1.0" standalone="no"?>
<!DOCTYPE svg PUBLIC "-//W3C//DTD SVG 20010904//EN"
 "http://www.w3.org/TR/2001/REC-SVG-20010904/DTD/svg10.dtd">
<svg version="1.0" xmlns="http://www.w3.org/2000/svg"
 width="832.000000pt" height="854.000000pt" viewBox="0 0 832.000000 854.000000"
 preserveAspectRatio="xMidYMid meet">

<g transform="translate(0.000000,854.000000) scale(0.100000,-0.100000)"
fill="#FFFFFF" stroke="none">
<path d="M4390 8425 c-69 -7 -143 -19 -166 -27 -23 -8 -53 -14 -68 -13 -14 0
-26 -3 -26 -7 0 -5 -12 -5 -26 -2 -20 5 -25 4 -19 -6 5 -9 2 -10 -14 -5 -11 3
-21 3 -21 -2 0 -5 -26 -14 -57 -21 -88 -20 -155 -43 -184 -63 -14 -10 -32 -19
-39 -21 -8 -2 -21 -9 -28 -16 -8 -7 -18 -10 -23 -7 -5 4 -9 0 -9 -9 0 -8 -20
-22 -47 -32 -57 -21 -142 -73 -172 -105 -11 -13 -21 -20 -21 -17 0 4 -12 -6
-27 -20 -16 -15 -39 -35 -53 -45 -14 -10 -18 -15 -10 -11 8 4 -1 -8 -20 -25
-19 -18 -34 -37 -33 -42 2 -5 0 -8 -5 -8 -18 3 -31 -3 -54 -23 -13 -13 -44
-41 -69 -63 -24 -22 -43 -43 -41 -48 1 -5 -1 -6 -6 -3 -5 3 -28 -15 -52 -39
-24 -25 -40 -45 -36 -45 5 0 2 -8 -5 -17 -8 -9 -9 -14 -3 -10 7 4 17 1 22 -6
14 -17 -31 -73 -49 -61 -9 5 -10 2 -6 -9 3 -9 -1 -21 -11 -29 -13 -11 -14 -11
-7 1 5 9 4 12 -3 7 -6 -4 -9 -13 -6 -20 3 -7 -3 -19 -12 -27 -10 -8 -15 -9
-11 -2 5 8 0 9 -15 5 -21 -5 -22 -4 -8 14 14 18 14 18 -3 5 -17 -13 -17 -16
-4 -26 11 -8 13 -16 6 -26 -6 -10 -9 -11 -9 -1 0 7 -5 18 -12 25 -12 13 -32
-3 -102 -84 -35 -40 -117 -160 -119 -174 -1 -5 -9 -16 -19 -25 -9 -8 -46 -60
-82 -115 -37 -55 -71 -105 -76 -112 -6 -7 -10 -16 -10 -22 0 -5 -3 -11 -8 -13
-25 -11 -126 -193 -116 -210 5 -7 3 -8 -6 -3 -10 6 -12 4 -7 -8 3 -10 3 -17
-1 -17 -4 0 -16 -15 -26 -32 -11 -18 -32 -52 -47 -75 -24 -36 -46 -94 -53
-138 -1 -5 -5 -16 -9 -22 -5 -7 -6 -13 -2 -13 3 0 1 -9 -5 -19 -7 -13 -7 -22
0 -26 5 -3 10 -12 10 -18 0 -9 -3 -8 -8 1 -11 17 -26 -31 -57 -178 -1 -8 -16
-78 -33 -155 -40 -186 -46 -228 -31 -219 9 5 11 -6 6 -44 -3 -29 -2 -54 4 -57
5 -4 9 -17 9 -31 0 -14 -4 -23 -8 -20 -4 2 -6 -11 -4 -31 3 -23 0 -38 -9 -44
-9 -6 -10 -9 -2 -9 8 0 11 -16 8 -52 -3 -28 -7 -53 -9 -55 -2 -3 0 -18 4 -34
5 -16 5 -31 1 -33 -4 -3 -7 -76 -6 -164 0 -88 -3 -155 -7 -149 -4 6 -8 -7 -11
-29 -2 -25 -4 -15 -5 30 -2 81 -13 82 -16 2 -2 -31 -6 -59 -9 -63 -11 -11 -8
-121 3 -128 8 -5 7 -12 -2 -23 -10 -12 -10 -14 0 -8 8 5 12 1 13 -11 1 -13 3
-11 9 7 8 25 10 23 14 -18 2 -14 -2 -21 -12 -20 -11 3 -14 -27 -14 -174 0
-113 -4 -178 -10 -178 -6 0 -4 -8 3 -17 10 -11 10 -14 2 -9 -10 5 -13 -10 -12
-66 1 -68 14 -199 18 -170 2 23 21 2 21 -24 0 -25 -15 -33 -23 -11 -3 6 -6 -6
-7 -28 -1 -22 -4 -49 -7 -60 -3 -11 -4 -39 -4 -62 1 -25 -3 -43 -9 -43 -6 0
-10 -17 -9 -37 0 -21 -7 -76 -16 -123 -9 -47 -14 -95 -12 -107 2 -12 0 -20 -4
-17 -5 3 -9 -2 -9 -10 0 -10 6 -14 18 -10 9 2 7 -1 -5 -7 -13 -7 -23 -16 -23
-21 0 -5 5 -6 10 -3 12 8 13 10 -5 -49 -8 -26 -12 -53 -8 -59 3 -6 1 -7 -5 -3
-12 7 -17 -10 -14 -47 1 -10 -2 -16 -7 -13 -5 3 -18 -18 -30 -46 -17 -40 -19
-53 -9 -60 10 -6 10 -8 0 -8 -7 0 -11 -4 -8 -9 3 -5 -1 -11 -9 -15 -8 -3 -15
-13 -15 -21 0 -19 -61 -135 -71 -135 -4 0 -14 -18 -23 -40 -9 -22 -20 -40 -26
-40 -5 0 -9 -3 -9 -7 4 -22 -2 -33 -13 -27 -8 5 -7 0 2 -11 9 -11 10 -16 3
-11 -8 4 -13 2 -13 -4 0 -6 -4 -8 -10 -5 -5 3 -7 0 -4 -8 5 -15 -82 -124 -96
-120 -5 2 -7 -3 -4 -11 6 -16 -210 -243 -270 -285 -22 -15 -40 -33 -39 -39 2
-7 -2 -12 -7 -12 -13 0 -120 -111 -120 -125 0 -15 -129 -140 -136 -132 -4 3
-19 0 -35 -9 -16 -8 -29 -12 -29 -8 0 4 -13 -9 -29 -29 -15 -20 -46 -51 -67
-69 -22 -18 -66 -60 -99 -92 -33 -33 -77 -75 -97 -95 -20 -19 -34 -39 -32 -43
3 -4 -2 -5 -10 -2 -14 6 -21 -5 -17 -28 0 -4 -6 -5 -14 -2 -8 4 -17 -1 -21
-10 -3 -9 -12 -16 -20 -16 -8 0 -14 -6 -14 -12 0 -10 -2 -10 -8 0 -6 9 -13 7
-28 -10 -19 -22 -19 -23 1 -8 18 14 19 14 7 -2 -8 -9 -19 -15 -27 -12 -7 3
-24 -5 -37 -18 -14 -13 -34 -30 -44 -38 -26 -20 -84 -95 -84 -108 0 -6 -4 -14
-10 -17 -6 -4 -7 1 -4 12 5 15 4 16 -5 3 -6 -8 -8 -23 -5 -32 3 -10 0 -18 -6
-18 -6 0 -9 -4 -6 -8 3 -5 -2 -22 -10 -38 -9 -16 -15 -30 -15 -31 1 -2 0 -4 0
-5 -1 -2 -3 -14 -5 -28 -2 -14 -7 -47 -13 -75 -5 -27 -8 -78 -7 -113 0 -34 -2
-62 -6 -62 -8 0 -3 -80 8 -142 4 -24 7 -46 6 -50 -1 -5 3 -8 10 -8 6 0 9 -3 5
-6 -3 -4 2 -14 11 -23 11 -10 12 -12 2 -6 -8 5 -5 -2 7 -15 11 -14 28 -45 37
-70 8 -25 15 -40 16 -35 0 6 9 -3 19 -18 10 -16 16 -38 14 -48 -4 -15 2 -23
26 -32 17 -6 31 -15 31 -20 0 -4 -6 -5 -12 -1 -9 6 -9 3 0 -9 8 -9 10 -22 6
-28 -4 -8 -3 -9 4 -5 7 4 12 1 12 -8 0 -8 -5 -18 -12 -22 -6 -4 -8 -3 -4 4 3
6 -3 13 -14 17 -11 4 -17 11 -14 17 4 6 3 8 -3 5 -11 -7 -33 34 -33 63 0 11
-4 20 -8 20 -11 0 -2 -60 12 -78 6 -7 19 -21 28 -29 9 -9 15 -20 12 -24 -2 -4
6 -6 18 -4 21 4 25 -1 35 -45 11 -47 41 -105 50 -96 2 2 -5 23 -17 46 -17 34
-19 44 -9 51 15 9 31 -9 22 -24 -3 -4 3 -15 13 -23 11 -9 12 -12 4 -8 -8 5 10
-21 40 -56 30 -35 48 -61 39 -58 -9 4 -16 1 -16 -7 0 -10 5 -11 18 -4 25 13
39 8 72 -26 16 -16 26 -23 22 -16 -5 9 5 5 23 -8 18 -12 36 -19 42 -16 12 8 9
-37 -4 -47 -5 -3 2 -7 15 -7 13 -1 43 -3 66 -4 28 -1 47 -9 58 -22 9 -13 13
-14 10 -4 -5 13 0 15 25 11 21 -3 35 1 43 11 7 9 19 15 27 13 8 -2 34 -7 58
-11 23 -4 42 -12 42 -17 0 -5 -9 -7 -20 -3 -40 13 -70 15 -70 6 0 -6 -7 -7
-17 -4 -11 4 -14 3 -9 -5 4 -7 14 -12 22 -12 8 0 14 -7 14 -16 0 -13 -5 -12
-31 6 -16 12 -33 19 -36 16 -4 -3 -1 -6 7 -6 10 0 10 -3 -1 -16 -8 -10 -21
-13 -38 -10 l-26 6 24 -14 c17 -10 20 -15 10 -18 -11 -5 -11 -9 3 -24 11 -11
18 -13 18 -6 0 7 7 12 15 12 9 0 12 6 9 17 -5 15 -4 15 5 3 7 -11 6 -19 -6
-32 -10 -11 -12 -18 -5 -18 7 0 12 5 12 10 0 6 7 10 15 10 8 0 15 5 15 10 0 6
4 10 10 10 5 0 7 -7 3 -16 -5 -14 -3 -14 15 -3 25 16 17 28 -21 31 -16 1 -27
8 -27 17 0 12 3 12 12 3 13 -13 42 -17 34 -4 -3 5 1 9 9 9 8 0 12 -4 9 -9 -3
-4 3 -7 13 -6 46 4 74 -2 67 -14 -6 -10 -4 -11 7 0 18 17 34 15 19 -3 -10 -12
-9 -15 7 -15 16 0 19 7 19 50 1 34 6 56 19 70 10 11 15 20 11 20 -3 0 6 13 20
29 14 16 25 33 24 36 -1 4 11 16 27 26 15 10 24 19 20 19 -5 0 0 14 10 30 9
17 20 30 24 30 4 0 22 19 40 42 l33 43 -30 -25 c-16 -14 -35 -31 -41 -39 -7
-8 -15 -12 -19 -9 -3 4 14 24 37 45 24 21 53 49 66 61 13 14 27 21 34 16 7 -4
9 -3 6 3 -4 6 3 19 16 29 21 19 21 19 7 -1 -14 -19 -14 -19 3 -6 10 8 16 20
13 28 -4 8 -1 11 5 7 6 -3 25 9 43 28 35 40 117 106 129 106 5 0 12 4 15 8 4
4 1 4 -7 -1 -10 -6 -12 -4 -7 4 4 7 13 10 19 8 16 -5 141 133 257 283 19 25
38 47 42 48 5 2 6 8 2 13 -3 5 -1 9 4 9 6 0 12 10 16 23 3 12 17 36 32 52 19
23 24 25 20 10 -6 -19 -6 -19 8 -1 8 10 33 38 55 62 23 23 41 47 41 52 0 6 6
12 14 15 15 6 16 31 1 44 -4 4 -5 2 0 -6 6 -10 4 -12 -5 -6 -8 5 -11 4 -7 -2
8 -13 -61 -106 -72 -98 -5 2 -8 -3 -7 -11 0 -9 -7 -18 -16 -19 -10 -2 -18 1
-18 6 0 6 -5 7 -12 3 -7 -4 -8 -3 -4 4 4 6 13 9 20 6 9 -3 13 2 12 18 -1 17 4
22 18 20 13 -3 17 1 13 12 -4 9 1 17 14 21 10 4 19 11 19 17 0 16 43 46 63 43
9 -2 15 0 12 4 -3 5 2 12 11 15 8 3 12 11 9 16 -4 6 -2 9 3 8 20 -6 71 85 74
130 1 6 5 12 9 12 5 0 6 6 3 14 -3 8 8 28 25 45 31 31 40 48 21 36 -14 -8 -1
24 22 57 11 16 17 31 15 36 -3 4 1 15 8 25 12 17 13 17 19 0 6 -15 8 -15 16
-3 6 8 10 25 10 38 0 14 4 21 11 16 7 -4 7 1 -1 16 -7 12 -8 20 -2 16 8 -5 46
68 57 109 11 41 19 54 28 48 5 -3 7 -1 4 5 -11 16 4 44 20 38 8 -3 11 -1 8 4
-4 6 1 30 10 54 10 25 14 50 10 57 -6 8 -4 10 5 4 10 -6 12 -4 7 9 -4 9 -3 15
2 12 9 -6 37 72 33 93 -2 7 1 10 7 6 7 -3 8 0 5 9 -3 8 2 26 11 40 9 14 14 29
11 35 -3 5 -2 11 3 13 14 5 62 216 55 243 -4 16 -2 25 6 25 6 0 8 5 5 10 -4 6
-2 32 4 58 6 26 12 83 15 127 6 100 25 657 29 825 2 69 7 134 11 145 6 16 6
17 -3 5 -8 -12 -11 -4 -12 35 -1 28 -3 76 -5 108 -2 32 1 57 6 57 6 0 11 -8
11 -17 1 -10 5 0 9 22 5 22 5 60 2 85 l-7 45 -7 -40 c-4 -22 -4 -11 -1 25 10
102 11 291 3 319 -8 23 -8 22 -9 -11 -1 -21 -5 -38 -9 -38 -5 0 -5 21 -1 48 4
26 9 72 10 102 1 47 3 50 9 25 6 -22 8 -9 9 49 1 59 -2 77 -11 73 -18 -6 -10
102 8 120 16 17 19 57 4 48 -8 -5 -9 15 -4 62 3 37 10 70 15 71 5 2 9 10 9 18
0 8 4 14 9 14 5 0 11 15 13 33 11 78 103 358 119 365 4 2 5 10 2 19 -5 12 -3
14 8 8 11 -7 12 -6 2 6 -10 12 -10 18 -1 27 7 7 9 12 4 12 -4 0 2 12 13 26 12
15 21 31 21 36 0 19 94 200 110 211 10 7 19 17 20 22 6 20 53 85 62 85 5 0 7
4 3 10 -3 5 6 17 20 26 14 9 25 20 25 25 0 5 22 40 49 78 27 38 47 72 44 75
-9 9 30 35 41 29 5 -3 7 0 4 8 -3 8 5 19 16 25 14 7 20 19 19 37 -1 15 3 27 8
27 6 0 7 -4 4 -10 -3 -5 -2 -10 3 -10 10 0 42 33 42 43 0 12 49 55 79 68 17 8
31 17 31 21 0 5 6 7 13 6 6 -2 11 3 9 10 -1 6 5 12 15 12 9 0 13 3 9 7 -3 4 4
13 16 20 22 12 22 12 3 14 -11 1 -29 0 -40 -1 -17 -2 -17 0 -5 14 7 10 19 15
27 12 8 -3 12 -2 9 3 -7 11 19 34 63 56 19 9 43 26 54 36 20 18 20 18 -1 14
-12 -2 -27 -7 -34 -11 -7 -4 -8 -3 -4 5 4 6 30 23 58 37 55 28 88 54 68 54 -6
0 -8 5 -5 10 4 6 11 7 17 4 7 -5 9 -1 5 9 -4 10 -1 17 5 17 9 0 9 3 0 12 -16
16 -15 47 2 54 14 5 10 50 -6 60 -5 3 -2 14 8 25 16 18 16 19 -12 20 -16 1
-32 1 -36 0 -5 0 -8 4 -8 9 0 6 8 10 17 10 14 0 13 3 -5 16 -12 8 -22 21 -22
29 0 9 -8 12 -27 9 -21 -4 -24 -2 -15 8 8 11 7 14 -8 14 -10 0 -17 -3 -14 -7
2 -4 -3 -9 -11 -13 -8 -3 -17 0 -21 6 -4 7 -3 8 4 4 7 -4 12 -2 12 4 0 5 20
20 45 32 25 12 45 26 45 31 0 5 -6 7 -14 4 -8 -3 -17 1 -20 9 -4 9 3 18 20 24
23 9 26 15 22 45 -2 21 1 36 8 39 7 3 12 14 11 24 -1 14 -6 18 -21 14 -11 -3
-17 -1 -13 5 4 6 -4 19 -18 29 -18 13 -21 21 -12 27 8 6 5 7 -9 4 -17 -4 -20
-1 -16 15 4 15 7 17 13 6 6 -9 8 -4 7 14 -2 23 -5 25 -21 16 -29 -15 -33 -1
-6 23 13 11 17 17 9 13 -29 -15 -60 -13 -60 4 -1 16 -2 15 -14 -1 -12 -16 -14
-16 -27 0 -12 14 -12 16 0 12 7 -3 27 8 42 24 29 29 39 48 17 30 -7 -6 -22
-13 -33 -16 -18 -7 -18 -6 2 12 12 10 19 22 15 26 -4 5 1 5 10 2 10 -3 20 -2
23 4 4 5 1 8 -7 7 -7 -2 -12 2 -11 8 1 7 -13 6 -42 -4 -25 -8 -42 -18 -39 -23
3 -5 -2 -9 -10 -9 -23 0 -31 4 -28 13 1 5 -8 1 -20 -7 -12 -9 -27 -16 -33 -16
-5 0 -4 4 4 9 9 6 10 11 2 15 -6 4 -11 3 -11 -2 0 -6 -7 -9 -16 -8 -9 0 -19
-6 -22 -14 -5 -13 -3 -13 11 -1 11 8 17 9 17 3 0 -6 -9 -16 -20 -22 -14 -7
-20 -7 -20 0 0 5 -5 10 -11 10 -5 0 -7 -5 -3 -12 5 -7 3 -8 -6 -3 -7 4 -15 3
-19 -2 -3 -5 -23 -19 -44 -32 -21 -13 -44 -30 -52 -38 -8 -8 -15 -13 -15 -11
0 7 -156 -148 -184 -182 -15 -19 -47 -55 -71 -81 -50 -52 -118 -139 -109 -139
3 0 -7 -15 -22 -33 -16 -18 -45 -57 -64 -87 -19 -30 -38 -57 -42 -58 -5 -2 -6
-8 -3 -13 5 -7 -20 -56 -35 -69 -15 -13 -81 -129 -94 -166 -8 -23 -27 -61 -42
-85 -52 -82 -74 -130 -89 -199 -1 -3 -20 -45 -43 -93 -23 -49 -42 -93 -42 -99
0 -5 -4 -6 -10 -3 -6 3 -7 -1 -4 -9 3 -9 1 -16 -5 -16 -6 0 -10 -3 -9 -7 0 -5
-1 -15 -5 -23 -20 -52 -49 -155 -56 -201 -12 -72 -19 -109 -27 -139 -3 -14 -7
-39 -8 -55 -1 -17 -5 -35 -8 -40 -10 -17 -30 -156 -24 -162 3 -4 6 5 7 18 l1
24 8 -25 c11 -34 12 -122 2 -116 -10 6 -8 -239 2 -424 16 -275 8 -597 -15
-626 -6 -7 -5 -33 2 -63 8 -38 8 -70 0 -114 -5 -34 -9 -120 -7 -192 3 -176
-10 -459 -23 -483 -6 -11 -13 -42 -15 -69 -5 -50 -73 -252 -120 -356 -14 -32
-26 -64 -26 -72 0 -7 -6 -20 -14 -27 -7 -8 -19 -30 -27 -51 -7 -20 -16 -37
-20 -37 -4 0 -11 -15 -14 -32 -4 -18 -10 -35 -14 -38 -11 -9 -78 -115 -101
-161 -13 -24 -36 -60 -51 -80 -16 -20 -29 -41 -29 -46 0 -4 -11 -25 -25 -46
-14 -20 -23 -42 -19 -49 4 -7 3 -8 -4 -4 -12 7 -35 -27 -25 -38 3 -3 -1 -6 -9
-6 -9 0 -31 -19 -50 -42 -18 -23 -64 -74 -102 -112 -37 -39 -102 -111 -144
-161 -42 -49 -78 -92 -81 -95 -3 -3 -35 -37 -71 -75 -35 -39 -190 -198 -343
-353 -207 -211 -278 -289 -274 -302 3 -10 -2 -28 -10 -39 -8 -12 -11 -21 -7
-21 5 0 3 -5 -4 -12 -15 -15 -16 -32 -1 -22 26 16 -13 -36 -52 -70 -33 -28
-37 -34 -20 -31 18 3 21 1 12 -9 -16 -19 -61 2 -53 23 6 16 -52 -21 -64 -40
-10 -17 -12 -59 -3 -65 5 -3 5 -13 -1 -23 -5 -10 -6 -21 -3 -25 3 -3 2 -6 -4
-6 -17 0 -24 -29 -11 -50 9 -14 16 -16 29 -9 14 7 19 4 24 -11 3 -11 10 -20
15 -20 5 0 10 -16 12 -37 2 -26 8 -37 21 -39 31 -4 30 -12 -2 -10 -16 0 -29 4
-28 7 1 4 0 6 -3 5 -3 0 -20 15 -38 34 -19 19 -37 35 -40 35 -4 0 -6 5 -4 12
2 7 -1 13 -7 13 -5 0 -8 14 -6 31 3 21 1 29 -8 26 -8 -3 -12 6 -11 29 1 19 -2
32 -6 29 -4 -3 -10 9 -14 25 -3 17 -10 30 -16 30 -6 0 -8 -6 -4 -12 4 -8 3
-10 -2 -5 -5 5 -9 12 -10 15 -7 39 -18 71 -24 67 -17 -11 -20 55 -7 145 4 25
9 69 12 99 2 29 10 60 16 67 6 8 9 14 5 14 -3 0 8 13 25 28 22 20 27 29 16 29
-9 0 -14 -4 -12 -8 3 -3 -1 -12 -9 -18 -10 -9 -15 -8 -20 4 -3 8 0 15 6 15 6
0 9 3 5 6 -7 8 17 34 32 34 6 0 7 7 4 17 -4 11 -3 14 5 9 7 -4 12 -2 12 4 0 6
5 8 10 5 6 -3 10 -1 10 4 0 6 -4 11 -9 11 -8 0 -8 16 -1 40 1 3 5 -4 10 -15 7
-16 9 -17 9 -3 1 9 11 25 24 35 25 19 48 51 29 39 -12 -7 -10 20 3 31 4 4 5 2
1 -4 -4 -7 -3 -13 3 -13 5 0 13 9 16 21 5 16 9 18 21 8 12 -9 12 -15 2 -27
-11 -13 -11 -14 2 -7 28 16 95 69 103 82 12 19 27 16 21 -4 -5 -15 -4 -15 4
-3 8 10 8 18 0 28 -8 9 -8 16 0 24 12 12 13 10 16 -14 2 -24 24 -19 22 6 0 13
-5 22 -10 18 -5 -3 -6 0 -3 5 4 6 23 18 42 27 21 10 33 22 29 28 -4 6 -3 8 3
5 13 -8 36 17 26 27 -4 4 1 4 10 0 11 -4 25 0 36 10 10 9 20 14 23 11 3 -3 13
5 24 17 l19 23 -25 -20 -25 -20 19 23 c11 12 25 22 33 22 8 0 11 5 8 10 -4 6
-2 9 2 8 5 -2 35 23 67 55 31 31 61 55 66 52 5 -3 11 -1 15 4 3 5 -3 15 -12
20 -14 9 -11 10 17 7 19 -3 29 -3 23 0 -19 8 -16 27 3 20 10 -4 27 5 45 23 16
16 29 27 29 23 0 -3 13 7 29 22 16 15 33 28 38 27 4 -1 8 4 8 9 0 6 7 15 15
20 13 9 13 11 0 19 -18 12 -33 3 -26 -15 7 -19 -3 -18 -27 3 -11 10 -17 13
-14 7 4 -7 1 -17 -7 -23 -8 -7 -11 -22 -8 -38 3 -16 1 -24 -5 -20 -5 4 -10 20
-11 37 0 22 4 30 16 30 15 1 15 2 -1 14 -12 9 -14 16 -8 21 6 3 11 0 11 -7 0
-9 3 -9 8 -2 4 6 31 10 60 9 29 0 56 3 58 7 3 5 2 7 -3 6 -4 -2 -8 1 -8 7 0 5
4 9 10 7 5 -2 7 0 2 4 -4 4 5 21 20 38 29 31 9 19 -35 -21 -14 -13 -30 -23
-36 -23 -6 0 14 25 46 54 31 30 54 57 51 60 -4 3 -12 1 -20 -5 -7 -6 -13 -9
-13 -6 0 13 120 123 124 113 2 -6 16 1 32 16 16 16 25 28 22 28 -4 0 -16 -10
-28 -22 -14 -15 -20 -17 -20 -7 0 19 88 102 100 94 6 -3 7 1 4 9 -5 14 4 20
27 18 3 -1 27 21 53 48 30 32 44 54 40 64 -3 9 -11 13 -17 9 -6 -4 -7 -1 -2 7
6 10 11 9 21 -4 13 -18 40 -13 29 5 -4 5 0 9 8 9 19 0 90 107 81 122 -4 6 -3
8 3 5 6 -4 16 0 23 8 7 8 17 12 24 8 6 -4 5 1 -3 10 -14 18 -26 23 -17 8 3 -5
-1 -11 -9 -14 -12 -5 -12 -2 -3 18 6 13 14 22 19 20 4 -3 11 5 15 17 7 24 4
35 -9 30 -5 -1 -6 2 -2 8 5 8 12 7 23 -2 14 -11 15 -10 9 6 -6 16 -5 17 7 6
14 -10 13 -15 -1 -38 -16 -25 -15 -26 0 -12 38 35 39 111 2 80 -11 -9 -13 -7
-11 7 2 10 14 24 27 30 13 7 18 13 12 13 -9 0 -8 10 5 34 9 19 20 32 24 30 4
-3 12 5 18 17 7 12 8 19 2 15 -6 -4 -8 2 -5 14 3 11 10 17 16 13 6 -4 8 0 4
10 -3 10 -2 17 4 17 6 0 8 9 4 21 -4 13 0 27 11 40 9 10 14 22 11 26 -4 3 -2
12 5 20 6 7 8 16 5 20 -4 3 -3 11 2 17 13 17 21 57 9 50 -5 -3 -3 8 6 24 9 17
12 33 7 36 -5 4 -7 15 -4 27 4 16 8 17 14 7 7 -10 9 -9 9 4 0 9 -4 20 -10 23
-15 10 -12 38 4 32 15 -6 17 24 2 34 -5 4 -6 15 -1 25 7 18 8 18 16 -1 8 -17
9 -16 6 8 -3 15 0 27 4 27 5 0 9 5 9 11 0 5 -4 7 -10 4 -5 -3 -10 -1 -10 4 0
6 5 11 11 11 6 0 9 9 6 19 -2 11 1 75 8 143 9 86 12 279 9 648 -1 289 -3 527
-4 530 -1 3 -1 19 -1 35 1 17 3 85 5 152 2 67 6 125 9 130 2 4 7 31 11 58 9
80 55 316 71 365 7 25 28 115 45 200 45 222 44 220 133 385 44 82 80 155 80
162 0 7 4 10 9 7 7 -5 10 3 7 22 0 3 8 12 18 21 10 8 12 12 6 8 -20 -10 -16
-2 21 38 23 25 32 44 29 57 -4 16 0 20 18 20 19 0 21 2 9 10 -15 9 -13 11 12
14 6 0 13 7 16 15 3 9 0 11 -8 6 -8 -5 -11 -3 -8 6 3 8 11 14 19 14 8 1 13 6
11 13 -1 7 3 12 9 12 6 0 9 7 6 14 -4 9 2 17 14 21 11 4 18 9 15 12 -3 3 5 20
18 37 13 17 25 38 28 46 6 17 98 140 135 180 13 14 23 28 23 33 0 4 29 38 65
75 36 36 65 70 65 75 0 5 25 32 55 61 30 28 55 50 55 47 0 -2 15 11 32 30 18
19 36 33 41 31 4 -1 10 12 14 28 4 21 10 29 19 26 8 -3 13 -2 12 2 -5 14 35
62 46 55 6 -3 8 -2 3 2 -8 9 31 55 47 55 6 0 27 16 47 36 20 19 45 36 56 37
12 0 19 6 16 13 -2 7 1 15 8 20 8 5 10 3 5 -7 -4 -8 1 -5 11 7 23 25 87 66
133 84 19 7 43 20 53 28 9 8 17 11 17 6 0 -5 7 2 16 14 8 12 19 20 24 17 5 -3
33 6 62 19 29 13 82 31 118 40 35 9 67 20 70 24 3 4 23 8 45 9 27 2 44 9 54
23 7 11 18 20 23 20 6 0 4 -7 -3 -16 -12 -15 -10 -15 21 -2 19 8 42 13 50 10
8 -3 12 -2 8 2 -9 11 -42 14 -48 5 -3 -4 -14 -1 -24 7 -17 12 -17 14 -4 14 21
0 50 28 43 41 -4 5 -1 9 5 9 7 0 9 -7 5 -17 -5 -15 -4 -16 6 -5 7 6 21 12 31
12 10 0 18 5 18 10 0 7 16 9 40 6 24 -3 40 -1 40 6 0 6 13 8 30 6 17 -3 30 0
30 6 0 6 5 4 10 -4 6 -9 10 -10 10 -3 0 6 13 11 30 11 28 -1 29 -2 15 -18 -14
-16 -8 -16 92 -4 58 7 111 10 117 6 11 -7 27 -11 61 -15 14 -1 19 3 17 16 -2
9 1 17 6 17 5 0 9 7 9 15 0 8 -4 15 -9 15 -4 0 -8 7 -8 16 0 8 -4 13 -9 10 -5
-4 -7 3 -4 14 3 11 13 20 22 21 9 0 3 6 -14 14 -17 8 -23 14 -14 15 23 0 30
25 18 58 -6 15 -10 29 -10 32 1 3 -5 5 -11 5 -7 0 -13 8 -13 18 0 10 -7 22
-15 27 -20 13 -197 10 -350 -5z m-197 -145 c-4 -4 -27 -12 -51 -19 -23 -6 -40
-16 -37 -21 3 -4 -5 -6 -17 -2 -16 4 -19 2 -13 -8 5 -8 4 -11 -3 -6 -6 4 -23
4 -37 0 -21 -5 -24 -9 -13 -16 10 -7 8 -8 -5 -4 -10 3 -23 6 -28 6 -16 0 13
26 30 27 29 2 46 8 53 17 3 5 17 10 30 12 12 1 23 3 23 4 0 1 8 3 18 5 11 2
21 5 23 8 2 2 11 4 19 4 9 0 12 -3 8 -7z m570 -9 c5 -1 5 -6 2 -11 -4 -6 -11
-7 -17 -3 -7 3 -33 5 -60 4 -26 -1 -48 2 -48 8 0 7 73 9 123 2z m-228 -8 c-11
-3 -26 -10 -32 -15 -10 -8 -13 -6 -13 6 0 12 9 16 33 15 21 -1 25 -3 12 -6z
m-115 -13 c0 -14 33 -12 50 3 12 10 12 9 2 -4 -11 -14 -9 -16 13 -16 14 0 25
4 25 9 0 5 5 6 11 3 21 -14 -4 -20 -77 -20 -55 0 -77 -4 -84 -15 -7 -10 -10
-11 -10 -2 0 6 -9 12 -20 12 -21 0 -27 15 -10 25 6 3 10 0 10 -7 0 -9 3 -9 10
2 8 13 10 13 10 -2 0 -12 6 -15 22 -10 14 3 17 7 9 10 -11 4 -11 6 0 13 19 12
39 11 39 -1z m-155 -38 c-8 -8 -25 10 -19 20 4 6 9 5 15 -3 4 -7 6 -15 4 -17z
m-54 -4 c-4 -12 -14 -24 -22 -26 -11 -3 -11 -1 1 8 11 9 12 13 2 17 -15 6 -6
23 13 23 11 0 12 -6 6 -22z m-241 2 c0 -5 -5 -10 -11 -10 -5 0 -7 5 -4 10 3 6
8 10 11 10 2 0 4 -4 4 -10z m90 -5 c0 -8 -4 -15 -8 -15 -5 0 -9 7 -9 15 0 8 4
15 9 15 4 0 8 -7 8 -15z m107 -5 c1 -13 -4 -20 -15 -20 -15 0 -15 2 -2 10 12
8 11 10 -7 10 -13 0 -22 -3 -20 -7 3 -10 -12 -11 -35 -5 -10 2 -15 8 -13 13 3
4 11 6 18 4 9 -4 70 8 72 14 1 1 1 -8 2 -19z m133 10 c0 -5 -2 -10 -4 -10 -3
0 -8 5 -11 10 -3 6 -1 10 4 10 6 0 11 -4 11 -10z m-58 -17 c-6 -2 -9 -10 -6
-15 4 -7 2 -8 -5 -4 -13 9 -5 26 12 25 9 0 8 -2 -1 -6z m335 -19 c-3 -3 -12
-4 -19 -1 -8 3 -5 6 6 6 11 1 17 -2 13 -5z m-580 -80 c-3 -3 -12 -4 -19 -1 -8
3 -5 6 6 6 11 1 17 -2 13 -5z m171 -19 c-3 -3 -18 -8 -34 -11 -16 -3 -46 -10
-68 -15 -21 -6 -40 -8 -42 -6 -5 5 139 45 145 41 2 -2 2 -6 -1 -9z m-243 -5
c-3 -5 -14 -10 -23 -9 -14 0 -13 2 3 9 27 11 27 11 20 0z m45 -50 c-8 -5 -19
-10 -25 -10 -5 0 -3 5 5 10 8 5 20 10 25 10 6 0 3 -5 -5 -10z m-683 -157 c-12
-14 -30 -35 -39 -45 -10 -10 -18 -22 -18 -28 0 -5 -5 -10 -12 -10 -6 0 -8 -3
-4 -7 9 -10 -55 -74 -67 -66 -6 4 -7 1 -3 -6 5 -7 0 -21 -9 -31 -14 -15 -22
-17 -37 -9 -10 5 -16 15 -12 21 4 5 1 14 -6 18 -8 5 -7 9 4 13 9 4 16 1 16 -5
0 -9 131 112 179 165 25 28 33 20 8 -10z m-147 -108 c-7 -8 -17 -15 -22 -15
-6 0 -5 7 2 15 7 8 17 15 22 15 6 0 5 -7 -2 -15z m385 -215 c-3 -5 -12 -10
-18 -10 -7 0 -6 4 3 10 19 12 23 12 15 0z m160 -29 c3 -5 1 -12 -5 -16 -5 -3
-10 1 -10 9 0 18 6 21 15 7z m-28 -25 c0 -8 -6 -12 -14 -9 -7 3 -13 0 -13 -7
0 -6 -5 -8 -11 -5 -6 5 -4 12 8 21 23 17 30 17 30 0z m-730 -16 c1 -11 -7 -25
-18 -30 -11 -6 -16 -16 -13 -22 4 -7 3 -8 -4 -4 -7 4 -12 2 -12 -5 0 -7 -3
-10 -6 -7 -10 11 16 48 34 49 11 0 12 2 4 6 -10 4 -10 8 -1 19 15 18 14 18 16
-6z m-161 -222 c-9 -12 -16 -19 -16 -15 0 11 24 47 28 42 2 -2 -3 -14 -12 -27z
m1058 -27 c3 -5 -1 -11 -9 -14 -9 -4 -12 -1 -8 9 6 16 10 17 17 5z m-1104 -71
c-6 -11 -13 -20 -16 -20 -2 0 0 9 6 20 6 11 13 20 16 20 2 0 0 -9 -6 -20z
m858 -290 c-7 -10 -14 -17 -17 -15 -4 4 18 35 25 35 2 0 -1 -9 -8 -20z m-1018
-157 c0 -5 -9 -19 -20 -33 -11 -14 -19 -19 -18 -11 2 8 10 22 18 32 17 20 20
22 20 12z m-239 -180 c-8 -15 -10 -15 -11 -2 0 17 10 32 18 25 2 -3 -1 -13 -7
-23z m1208 -20 c-40 -47 -42 -49 -34 -33 10 19 47 60 53 60 3 0 -5 -12 -19
-27z m-1285 -238 c-4 -8 -10 -15 -15 -15 -4 0 -6 7 -3 15 4 8 10 15 15 15 4 0
6 -7 3 -15z m-97 -337 c-3 -8 -6 -5 -6 6 -1 11 2 17 5 13 3 -3 4 -12 1 -19z
m-10 -60 c-3 -8 -6 -5 -6 6 -1 11 2 17 5 13 3 -3 4 -12 1 -19z m-36 -1025 c13
-16 12 -17 -3 -4 -10 7 -18 15 -18 17 0 8 8 3 21 -13z m726 -265 c-3 -7 -5 -2
-5 12 0 14 2 19 5 13 2 -7 2 -19 0 -25z m-10 -240 c-2 -13 -4 -3 -4 22 0 25 2
35 4 23 2 -13 2 -33 0 -45z m-722 -58 c3 -5 1 -10 -4 -10 -6 0 -11 5 -11 10 0
6 2 10 4 10 3 0 8 -4 11 -10z m322 -142 c-3 -7 -5 -2 -5 12 0 14 2 19 5 13 2
-7 2 -19 0 -25z m-6 -109 c-6 -16 -10 -18 -10 -7 -1 22 12 55 16 42 2 -6 -1
-22 -6 -35z m-527 -1164 c-9 -14 -21 -25 -27 -25 -6 0 0 11 13 25 13 14 25 25
27 25 2 0 -4 -11 -13 -25z m-144 -159 c0 -2 -8 -10 -17 -17 -16 -13 -17 -12
-4 4 13 16 21 21 21 13z m-267 -151 c-3 -9 -8 -14 -10 -11 -3 3 -2 9 2 15 9
16 15 13 8 -4z m-33 -38 c0 -2 -10 -12 -22 -23 l-23 -19 19 23 c18 21 26 27
26 19z m-76 -105 c3 -5 -1 -9 -9 -9 -8 0 -12 4 -9 9 3 4 7 8 9 8 2 0 6 -4 9
-8z m-254 -86 c0 -2 -8 -10 -17 -17 -16 -13 -17 -12 -4 4 13 16 21 21 21 13z
m223 -96 c-3 -12 -8 -19 -11 -16 -5 6 5 36 12 36 2 0 2 -9 -1 -20z m-84 3 c-4
-22 2 -25 14 -8 9 12 16 14 21 7 3 -6 -1 -17 -9 -24 -9 -7 -25 -21 -36 -30
-18 -17 -19 -17 -19 0 0 10 3 22 8 26 4 4 8 12 8 17 2 16 4 19 9 19 3 0 4 -3
4 -7z m-59 -26 c0 -2 -10 -12 -22 -23 l-23 -19 19 23 c18 21 26 27 26 19z m90
-24 c-1 -9 -50 -47 -50 -39 0 5 41 46 47 46 2 0 3 -3 3 -7z m-331 -242 c-30
-32 -60 -59 -68 -60 -10 -1 -7 6 7 20 12 11 19 25 16 31 -4 7 -2 8 4 4 6 -4
28 9 49 29 56 53 53 42 -8 -24z m-124 -81 c-9 -14 8 -13 23 2 7 7 12 10 12 7
0 -3 -11 -16 -26 -30 -22 -21 -24 -21 -18 -4 7 18 6 18 -9 6 -21 -17 -22 -8
-1 13 17 18 28 21 19 6z m-51 -42 c-5 -8 -2 -9 11 -4 15 6 16 4 4 -10 -7 -9
-14 -23 -15 -33 -3 -16 -72 -81 -87 -81 -4 0 -10 7 -13 15 -8 19 13 45 36 45
10 0 21 8 25 18 5 14 4 15 -6 5 -16 -16 -29 -17 -29 -2 0 5 3 8 8 5 4 -2 19 8
32 24 25 28 48 41 34 18z m1387 -107 c-6 -10 -7 -22 -3 -26 4 -5 2 -5 -4 -2
-7 4 -17 -6 -24 -23 -15 -36 -36 -55 -44 -41 -4 6 2 16 14 23 11 7 20 18 20
23 0 10 40 65 47 65 2 0 -1 -8 -6 -19z m-1695 -96 c0 -14 -4 -25 -9 -25 -4 0
-6 -4 -2 -9 3 -5 0 -13 -6 -16 -5 -4 -8 -14 -5 -22 4 -9 2 -11 -6 -7 -7 5 -9
2 -5 -9 4 -11 2 -14 -8 -10 -11 3 -12 10 -5 23 5 9 7 20 4 23 -8 8 5 44 22 62
20 19 20 19 20 -10z m134 21 c0 -2 -7 -9 -15 -16 -13 -11 -14 -10 -9 4 5 14
24 23 24 12z m1477 -51 c-15 -16 -19 -13 -11 9 3 9 10 13 15 10 5 -3 3 -11 -4
-19z m-1547 -6 c0 -5 -11 -16 -25 -25 -14 -9 -25 -21 -25 -26 0 -6 8 -4 18 3
9 7 5 0 -10 -17 -16 -17 -28 -38 -28 -47 0 -9 -5 -17 -11 -17 -16 0 -2 47 28
96 23 36 53 55 53 33z m-99 -87 c-7 -2 -18 1 -23 6 -8 8 -4 9 13 5 13 -4 18
-8 10 -11z m-34 -64 c-3 -8 -6 -5 -6 6 -1 11 2 17 5 13 3 -3 4 -12 1 -19z m48
-9 c-6 -33 -15 -36 -15 -6 0 15 4 27 9 27 6 0 8 -10 6 -21z m-14 -71 c-3 -20
-6 -26 -9 -15 -2 9 -9 17 -15 17 -9 1 19 30 28 30 1 0 -1 -15 -4 -32z m-25
-126 c-10 -11 -16 -12 -16 -4 0 7 5 12 10 12 6 0 10 8 11 18 0 11 2 13 6 4 3
-8 -2 -21 -11 -30z m1414 -82 c0 -5 -2 -10 -4 -10 -3 0 -8 5 -11 10 -3 6 -1
10 4 10 6 0 11 -4 11 -10z m-929 -33 c-10 -9 -11 -8 -5 6 3 10 9 15 12 12 3
-3 0 -11 -7 -18z m853 -64 c-13 -20 -21 -39 -18 -44 3 -5 -2 -6 -10 -3 -9 3
-16 2 -16 -3 0 -21 -37 -49 -65 -50 -16 -1 -24 1 -16 4 25 10 61 46 61 61 0 9
6 12 16 8 8 -3 13 -2 10 3 -3 5 1 11 9 15 8 3 13 11 11 18 -1 7 -1 9 2 5 7
-14 31 14 25 31 -4 13 -3 14 5 3 7 -9 3 -24 -14 -48z m-923 4 c-10 -9 -11 -8
-5 6 3 10 9 15 12 12 3 -3 0 -11 -7 -18z m799 -121 c0 -2 -8 -10 -17 -17 -16
-13 -17 -12 -4 4 13 16 21 21 21 13z m-50 -50 c0 -2 -8 -10 -17 -17 -16 -13
-17 -12 -4 4 13 16 21 21 21 13z m-110 -10 c0 -2 -8 -10 -17 -17 -16 -13 -17
-12 -4 4 13 16 21 21 21 13z m-745 -135 c3 -5 2 -12 -3 -15 -5 -3 -9 1 -9 9 0
17 3 19 12 6z m620 -111 c3 -5 -1 -10 -10 -10 -9 0 -13 5 -10 10 3 6 8 10 10
10 2 0 7 -4 10 -10z m-35 -46 c0 -8 -19 -13 -24 -6 -3 5 1 9 9 9 8 0 15 -2 15
-3z m-41 -46 c-6 -11 -17 -22 -25 -25 -7 -3 -11 -10 -7 -17 4 -7 1 -6 -9 2
-13 10 -15 9 -10 -14 4 -24 3 -25 -16 -13 -19 12 -20 15 -5 31 8 9 20 16 27
15 6 -1 10 4 9 11 -2 6 3 11 10 10 6 -2 11 2 10 8 -1 6 4 11 12 11 11 0 11 -5
4 -19z m-458 -81 c-10 -9 -11 -8 -5 6 3 10 9 15 12 12 3 -3 0 -11 -7 -18z m65
14 c-8 -12 13 -19 52 -16 18 2 35 -1 38 -6 3 -5 10 -6 16 -3 7 5 8 2 3 -6 -8
-13 -73 -7 -107 11 -16 8 -17 29 -2 29 3 0 3 -4 0 -9z m308 -9 c3 -5 -1 -9 -9
-9 -8 0 -12 4 -9 9 3 4 7 8 9 8 2 0 6 -4 9 -8z m-307 -28 c-3 -3 -12 -4 -19
-1 -8 3 -5 6 6 6 11 1 17 -2 13 -5z m288 -24 c-3 -5 -12 -10 -18 -10 -7 0 -6
4 3 10 19 12 23 12 15 0z"/>
<path d="M3115 7679 c-4 -6 -5 -12 -2 -15 2 -3 7 2 10 11 7 17 1 20 -8 4z"/>
<path d="M750 1795 c-9 -11 -9 -15 -1 -15 7 0 9 -5 5 -12 -4 -7 -3 -10 1 -5 9
8 18 47 11 47 -2 0 -9 -7 -16 -15z"/>
<path d="M695 1732 c3 -3 -1 -12 -7 -21 -8 -10 -4 -9 10 3 26 23 26 23 7 23
-8 0 -13 -3 -10 -5z"/>
<path d="M430 1580 c0 -5 5 -10 11 -10 5 0 7 5 4 10 -3 6 -8 10 -11 10 -2 0
-4 -4 -4 -10z"/>
<path d="M4448 8133 c7 -3 16 -2 19 1 4 3 -2 6 -13 5 -11 0 -14 -3 -6 -6z"/>
<path d="M4328 8123 c7 -3 16 -2 19 1 4 3 -2 6 -13 5 -11 0 -14 -3 -6 -6z"/>
<path d="M4266 8105 c4 -8 7 -15 9 -15 2 0 5 7 9 15 3 9 0 15 -9 15 -9 0 -12
-6 -9 -15z"/>
<path d="M4640 8109 c-14 -4 -23 -8 -20 -9 21 -7 41 -7 46 2 9 14 2 16 -26 7z"/>
<path d="M4518 8073 c7 -3 16 -2 19 1 4 3 -2 6 -13 5 -11 0 -14 -3 -6 -6z"/>
<path d="M5120 8018 c-52 -4 -106 -10 -120 -11 -14 -2 -38 -5 -53 -5 -16 -1
-25 -6 -22 -12 5 -8 -47 -16 -77 -11 -5 0 -8 -3 -8 -8 0 -4 -28 -12 -62 -15
-158 -18 -405 -105 -521 -184 -35 -24 -99 -111 -91 -124 3 -5 -1 -17 -9 -26
-21 -23 -39 -72 -27 -72 6 0 10 8 11 18 0 10 2 12 6 4 3 -7 2 -20 -3 -30 -12
-27 -13 -43 -3 -36 5 3 8 8 5 12 -2 4 7 17 21 30 l23 23 -2 -32 c-1 -17 -8
-34 -15 -36 -10 -4 -10 -10 -1 -26 7 -12 11 -25 10 -29 -1 -4 7 -10 18 -13 11
-4 20 -11 20 -16 0 -5 5 -9 11 -9 6 0 9 9 6 20 -3 11 -1 18 4 14 14 -8 11 -25
-8 -46 -19 -22 -1 -25 21 -3 33 33 37 3 4 -34 -13 -14 -15 -19 -5 -12 29 22
19 -3 -13 -34 -16 -16 -30 -33 -30 -39 0 -5 -7 -17 -16 -27 -12 -13 -12 -19
-3 -25 7 -4 10 -3 6 3 -4 6 0 13 8 16 11 5 13 -3 8 -45 -5 -37 -3 -49 5 -44 7
4 12 16 12 27 0 10 6 19 13 19 8 0 7 4 -3 10 -8 5 -13 10 -10 11 46 7 63 7 50
-1 -8 -5 -11 -10 -7 -10 4 0 2 -6 -5 -14 -7 -8 -17 -12 -22 -9 -4 3 -5 -9 -1
-26 5 -22 2 -35 -10 -47 -13 -13 -14 -19 -4 -25 8 -4 18 -1 26 9 8 12 12 13
13 4 0 -9 7 -11 20 -7 14 5 20 2 20 -9 0 -9 -7 -16 -15 -16 -8 0 -15 -5 -15
-11 0 -5 -4 -8 -9 -4 -6 3 -13 0 -18 -7 -4 -7 -19 -19 -33 -26 -14 -7 -34 -25
-44 -40 -19 -27 -19 -27 12 2 18 17 32 26 32 21 0 -5 11 2 26 15 19 19 27 21
33 12 15 -25 -1 -61 -39 -87 -37 -26 -56 -52 -45 -63 3 -3 5 0 5 6 0 13 36 49
64 64 17 9 18 7 14 -16 -3 -14 -1 -23 3 -20 5 3 10 -1 10 -8 1 -7 3 -23 4 -34
1 -15 -13 -35 -46 -63 -50 -43 -65 -47 -29 -9 26 28 18 36 -10 10 -11 -10 -23
-31 -26 -45 -2 -15 -8 -37 -14 -51 -12 -33 -1 -40 22 -13 l19 22 -12 -25 c-7
-14 -15 -27 -19 -30 -4 -3 -2 -11 6 -18 12 -11 14 -9 14 8 0 14 4 19 12 14 7
-4 8 -3 4 4 -4 7 -1 12 8 12 9 0 16 6 16 14 0 17 65 68 75 58 5 -4 5 -1 1 6
-5 9 10 20 50 38 65 29 85 25 27 -5 -22 -11 -46 -27 -53 -36 -8 -10 19 0 60
22 41 22 84 43 94 47 17 6 17 5 5 -10 -13 -16 -12 -16 8 -4 12 8 19 18 17 22
-3 4 3 8 13 8 10 0 27 7 37 15 25 19 15 19 -31 0 -45 -19 -59 -19 -44 -1 9 11
9 15 -1 19 -8 3 -6 6 6 6 15 1 16 4 6 16 -10 12 -6 18 22 35 18 11 37 20 42
20 4 0 30 11 56 24 27 13 50 24 52 23 2 -1 -3 4 -11 11 -8 6 -11 12 -5 13 5 0
22 3 37 5 19 3 26 1 22 -6 -3 -6 -11 -8 -16 -5 -5 4 -9 1 -9 -5 0 -8 7 -9 18
-5 57 24 163 52 167 44 7 -10 7 -11 -20 -14 -11 -2 -31 -8 -45 -13 -24 -10
-24 -11 9 -11 45 -1 37 -8 -17 -16 -28 -4 -42 -3 -38 3 4 6 -3 8 -15 5 -14 -4
-17 -8 -9 -13 9 -6 9 -9 0 -15 -7 -4 -15 -3 -19 3 -4 7 -24 2 -56 -13 -28 -12
-53 -21 -57 -18 -5 2 -8 -4 -8 -14 0 -15 -2 -15 -9 -4 -8 12 -14 12 -33 3 -13
-7 -15 -10 -5 -8 9 3 17 1 17 -4 0 -6 -13 -10 -30 -10 -35 0 -38 -10 -10 -27
17 -11 19 -10 14 5 -5 14 -4 14 4 3 9 -12 13 -12 26 -2 9 7 25 11 36 8 11 -3
17 -1 14 4 -3 6 5 7 22 3 17 -4 25 -3 21 3 -4 6 1 10 11 9 9 0 41 6 69 13 52
13 63 30 20 32 -22 0 -22 0 1 9 13 6 49 14 80 19 31 5 65 12 75 16 9 4 17 3
17 -3 0 -10 -55 -26 -79 -23 -11 2 -11 -1 2 -13 18 -18 37 -21 37 -6 0 6 9 10
21 10 12 0 35 6 52 14 58 25 200 47 337 52 74 2 164 8 200 13 l65 10 -61 -3
c-48 -2 -61 1 -57 11 6 16 -9 17 -24 2 -11 -11 -73 -3 -73 9 0 4 18 6 40 6 22
-1 43 2 46 7 3 5 -12 9 -32 9 -73 0 -24 11 67 15 52 3 105 8 118 11 16 5 22 4
18 -3 -4 -7 7 -13 28 -17 19 -4 35 -11 35 -16 0 -6 8 -10 18 -10 13 0 14 2 4
9 -10 6 -9 10 7 14 12 3 19 1 15 -4 -3 -5 0 -9 6 -9 6 0 8 -4 5 -10 -3 -5 -1
-10 5 -10 6 0 13 7 16 15 9 22 35 19 27 -2 -3 -10 -3 -15 2 -11 4 4 15 2 23
-5 13 -10 14 -9 8 1 -6 10 -1 10 22 -2 16 -8 31 -14 33 -13 2 1 -1 -3 -8 -9
-13 -11 18 -25 87 -40 l35 -7 -40 -12 -40 -11 30 -8 c57 -14 155 -68 155 -85
-1 -42 -17 -44 -58 -7 -45 42 -168 125 -192 130 -8 2 -36 12 -62 24 -25 11
-67 24 -93 28 -32 4 -43 9 -34 15 11 7 9 9 -6 10 -11 1 -36 3 -55 5 -19 1 -41
-2 -50 -7 -11 -8 -8 -9 13 -6 15 2 27 1 27 -4 0 -4 10 -9 23 -11 12 -2 21 -9
20 -15 -2 -7 7 -10 23 -7 18 3 23 1 18 -7 -5 -8 -3 -9 6 -4 7 4 15 3 19 -2 3
-5 24 -17 46 -26 l40 -17 -54 6 c-30 3 -63 10 -72 15 -26 14 -85 11 -98 -5 -9
-11 -6 -15 13 -18 14 -3 23 -1 20 3 -6 11 -1 11 20 3 9 -3 14 -10 11 -14 -3
-5 3 -9 12 -8 30 0 138 -36 159 -53 6 -5 14 -6 17 -2 4 3 7 1 7 -5 0 -7 3 -11
8 -10 15 4 52 -14 47 -23 -4 -5 3 -9 14 -9 12 0 21 -4 21 -10 0 -5 -8 -7 -17
-3 -10 3 1 -8 23 -26 26 -19 48 -29 58 -25 12 5 15 2 10 -11 -5 -11 -2 -16 7
-15 57 8 56 -20 -3 -118 -29 -48 -58 -96 -65 -107 -7 -11 -18 -31 -25 -45 -7
-14 -28 -40 -48 -57 -19 -18 -32 -33 -29 -33 9 0 -65 -83 -158 -179 -46 -47
-83 -89 -83 -95 0 -5 -3 -7 -6 -3 -4 3 -23 -9 -43 -28 -20 -19 -59 -51 -87
-72 -50 -37 -142 -116 -207 -178 -18 -16 -47 -41 -65 -55 -19 -14 -39 -30 -45
-35 -7 -6 -24 -20 -39 -31 -24 -19 -125 -104 -152 -129 -6 -6 -39 -33 -73 -60
-35 -28 -63 -53 -63 -57 0 -5 -4 -8 -10 -8 -13 0 -75 -62 -75 -75 0 -5 -5 -10
-12 -10 -7 0 -31 -16 -55 -36 -24 -19 -56 -44 -73 -55 -16 -10 -32 -21 -35
-24 -15 -16 -112 -90 -161 -123 -30 -20 -84 -62 -120 -93 -35 -31 -85 -72
-111 -91 -47 -34 -64 -61 -31 -49 10 4 14 3 9 -1 -4 -4 -20 -8 -34 -8 -18 0
-28 -6 -30 -20 -4 -17 -2 -18 14 -5 11 8 6 0 -10 -18 -17 -18 -32 -32 -34 -32
-3 0 3 9 12 19 10 10 13 22 8 25 -15 9 -144 -104 -138 -120 3 -8 2 -13 -3 -10
-11 7 -124 -112 -139 -149 -8 -16 -21 -41 -30 -55 -9 -14 -16 -32 -17 -40 0
-8 -5 -14 -12 -13 -8 2 -10 -4 -6 -14 4 -9 2 -14 -3 -11 -5 3 -10 -9 -11 -28
-1 -28 2 -34 19 -34 16 0 18 -3 9 -13 -8 -10 -6 -19 9 -35 11 -12 20 -26 20
-32 0 -20 21 -9 41 23 19 28 20 29 16 7 l-6 -25 20 24 c10 13 19 18 19 12 0
-7 4 -10 9 -7 5 3 5 -12 -1 -37 -5 -23 -14 -44 -19 -45 -6 -3 -6 -9 1 -17 7
-8 9 -23 6 -33 -6 -19 -8 -19 -74 -1 -79 21 -162 29 -162 17 0 -5 -4 -6 -10
-3 -23 14 -236 24 -309 14 -68 -9 -202 -44 -271 -70 -48 -18 -82 -53 -86 -89
-2 -19 -7 -42 -11 -50 -9 -22 -4 -50 15 -79 11 -16 12 -22 4 -17 -11 7 -11 4
0 -13 7 -12 19 -21 26 -21 7 0 10 -5 6 -11 -4 -7 -1 -10 7 -7 8 3 25 1 38 -4
19 -7 28 -4 42 11 11 11 19 25 19 30 0 6 9 15 20 21 20 11 30 -3 10 -15 -15
-9 -12 -35 4 -35 8 0 18 5 22 12 5 8 2 9 -10 5 -11 -5 -16 -3 -14 5 8 24 26
18 37 -13 7 -21 15 -29 26 -25 12 4 13 2 2 -14 -11 -19 -24 -24 -55 -23 -7 1
-11 -2 -8 -5 9 -8 -30 -33 -46 -29 -7 2 -9 2 -5 -1 4 -2 2 -11 -5 -20 -11 -13
-10 -15 4 -9 12 4 15 2 11 -9 -3 -7 -11 -14 -17 -14 -8 0 -11 -11 -8 -31 3
-21 9 -29 19 -25 8 3 21 -1 29 -9 12 -12 4 -22 -9 -12 -2 1 -11 -4 -20 -12
-25 -20 -22 -72 3 -78 11 -3 20 -10 20 -15 0 -5 -5 -6 -12 -2 -7 4 -8 3 -4 -5
4 -6 3 -17 -3 -24 -6 -8 -6 -18 -1 -27 7 -10 10 -11 10 -2 0 6 10 12 21 12 16
0 20 5 16 20 -3 10 -1 18 3 17 5 -1 16 7 24 18 15 20 15 20 16 -2 0 -14 -6
-23 -15 -23 -10 0 -15 -10 -15 -26 l0 -26 21 23 c15 17 19 19 15 7 -7 -23 10
-23 23 0 6 9 11 12 11 5 0 -18 -30 -44 -43 -36 -7 4 -8 0 -4 -11 4 -10 3 -15
-3 -11 -6 3 -10 2 -10 -4 0 -6 -12 -17 -27 -25 l-28 -15 30 5 c27 5 32 2 44
-28 15 -35 31 -101 32 -131 0 -11 5 -16 12 -13 7 3 20 9 30 12 21 8 23 34 2
34 -8 0 -15 4 -15 9 0 11 59 23 73 14 6 -4 7 -1 2 7 -6 10 -1 12 21 7 18 -3
37 0 48 9 11 8 16 14 11 14 -5 0 1 10 13 23 12 13 21 25 20 28 -2 2 2 -1 7 -7
6 -6 16 -9 23 -6 10 3 10 7 0 20 -8 10 -9 13 -1 9 6 -4 23 -2 38 5 19 9 28 9
37 0 9 -9 4 -12 -21 -12 -18 0 -30 -4 -27 -9 4 -5 22 -5 43 0 21 5 45 9 53 9
13 0 13 -1 0 -11 -11 -8 -3 -9 30 -5 34 5 41 4 30 -5 -12 -8 -9 -9 12 -5 16 4
40 3 55 -1 l28 -7 -35 -8 c-30 -6 -28 -6 13 -4 26 2 50 0 53 -5 3 -5 16 -9 30
-9 14 0 35 -5 46 -11 16 -9 19 -8 16 2 -3 8 -15 16 -29 20 l-24 7 24 1 c39 2
20 8 -43 15 -83 9 -81 14 6 14 79 0 181 -15 174 -26 -2 -4 7 -8 20 -9 44 -4
54 -6 49 -12 -3 -3 5 -11 17 -18 21 -13 21 -13 2 -8 -15 4 -21 1 -21 -11 0
-10 7 -14 19 -11 17 5 17 3 6 -11 -10 -12 -10 -14 0 -8 6 4 12 3 12 -3 0 -5
14 -12 30 -16 17 -4 28 -10 26 -14 -2 -3 10 -15 27 -25 31 -17 31 -17 14 1 -9
11 -14 23 -11 26 4 4 -5 11 -20 17 -17 6 -25 14 -20 22 6 9 9 9 12 0 3 -10 7
-10 18 -1 12 10 13 9 8 -5 -3 -9 -1 -16 5 -16 6 0 29 -11 51 -25 44 -28 57
-31 44 -12 -5 7 -1 4 10 -8 10 -11 21 -20 25 -20 3 0 5 -4 3 -8 -1 -5 2 -6 6
-3 5 3 17 -3 26 -13 14 -15 14 -20 4 -25 -7 -3 -1 -3 14 0 20 5 29 1 38 -16 9
-17 9 -21 0 -15 -9 5 -8 1 1 -16 l13 -24 5 23 6 24 24 -26 c13 -14 21 -32 18
-40 -4 -9 -1 -18 5 -22 6 -4 8 -3 4 4 -9 15 7 23 24 11 13 -8 13 -10 0 -19
-12 -9 -12 -10 5 -8 11 2 19 -2 18 -9 -1 -6 8 -10 22 -8 13 1 22 -1 20 -5 -7
-11 20 -31 30 -22 5 4 5 2 1 -5 -4 -8 8 -22 34 -38 22 -14 40 -30 40 -35 0
-17 -12 -11 -62 31 -70 59 -59 25 14 -43 35 -32 63 -64 63 -71 0 -7 12 -11 30
-10 19 2 25 -1 17 -6 -10 -6 -9 -11 4 -22 16 -12 17 -12 9 1 -5 8 13 -4 39
-27 27 -24 52 -40 57 -38 4 3 11 0 15 -6 4 -8 3 -9 -4 -5 -17 10 -15 -9 2 -23
8 -7 11 -22 8 -39 -5 -25 -4 -26 13 -12 17 14 18 14 7 -5 -11 -20 6 -50 60
-109 10 -11 18 -24 18 -28 0 -5 4 -7 9 -4 5 3 11 -4 14 -15 3 -12 10 -18 15
-15 6 4 9 -4 8 -19 -2 -14 1 -22 7 -18 5 3 27 -13 48 -36 21 -22 34 -41 29
-41 -6 0 -10 -4 -10 -10 0 -5 7 -6 17 -3 11 4 14 3 9 -6 -5 -7 3 -26 18 -45
21 -28 30 -32 53 -28 27 5 27 4 10 -13 -10 -9 -14 -20 -10 -24 4 -3 12 -10 16
-16 5 -6 6 -2 3 9 -5 16 -4 17 9 6 10 -9 12 -17 5 -30 -7 -13 -6 -23 3 -32 8
-7 19 -24 26 -36 7 -12 17 -20 23 -16 7 4 8 3 4 -4 -4 -6 12 -30 36 -55 71
-71 97 -107 92 -121 -3 -8 0 -17 5 -21 6 -3 8 -11 5 -17 -4 -6 -2 -8 3 -5 12
7 59 -30 56 -44 -2 -4 4 -6 12 -3 8 4 12 11 8 17 -3 6 -1 7 6 3 6 -4 9 -12 6
-17 -4 -5 4 -19 17 -32 13 -13 42 -44 65 -68 23 -24 53 -52 67 -62 14 -10 26
-23 26 -30 0 -8 -4 -6 -11 3 -6 8 -9 10 -7 3 2 -6 29 -39 61 -71 31 -33 57
-65 57 -71 0 -6 3 -10 8 -10 4 1 14 1 22 0 13 -1 13 -2 0 -11 -13 -8 -12 -10
3 -10 10 0 15 -5 12 -10 -4 -6 -3 -10 2 -9 20 4 33 -2 33 -15 0 -9 9 -13 25
-12 13 2 22 -1 19 -6 -3 -5 3 -12 15 -15 11 -3 18 -9 15 -14 -3 -5 -1 -9 5 -9
6 0 8 -7 4 -15 -3 -9 -1 -15 4 -13 9 3 62 -36 114 -85 44 -40 104 -78 127 -80
11 0 19 -4 16 -8 -5 -9 24 -21 54 -24 12 -1 29 -10 36 -20 8 -12 19 -16 31
-11 17 6 17 5 0 -21 l-18 -28 28 25 c27 24 27 24 16 3 -10 -21 -8 -25 21 -43
35 -21 74 -27 63 -10 -3 6 0 10 9 10 8 0 23 3 33 7 16 6 17 5 3 -12 -14 -17
-14 -18 7 -7 35 19 47 14 22 -9 -13 -11 -18 -18 -11 -14 6 3 12 2 12 -3 0 -6
-14 -15 -30 -21 -22 -7 -29 -7 -24 0 4 7 -1 9 -15 4 -14 -4 -21 -2 -21 6 0 7
-3 9 -6 6 -11 -10 17 -37 37 -37 11 0 19 -6 19 -12 0 -9 4 -8 10 2 7 11 10 11
10 2 0 -7 5 -10 10 -7 8 5 8 11 0 20 -8 9 -6 14 6 19 10 4 14 12 10 22 -5 13
-2 15 13 11 14 -3 18 -1 14 9 -8 22 20 17 131 -23 30 -11 41 -11 50 -2 8 9 7
10 -6 6 -11 -4 -18 -1 -18 6 0 7 -16 13 -38 13 -21 1 -58 11 -83 23 -51 23
-33 28 32 7 24 -8 70 -19 102 -26 41 -8 57 -16 53 -25 -3 -9 5 -12 30 -11 19
1 34 -2 34 -6 0 -5 17 -7 38 -7 l37 2 -35 8 c-24 5 -10 7 44 4 43 -3 115 -5
158 -5 53 0 77 -4 73 -10 -4 -6 -14 -10 -23 -9 -10 1 -42 1 -72 0 -45 -1 -52
-4 -36 -12 11 -7 44 -9 85 -5 36 3 100 9 141 12 86 7 104 14 38 14 -25 0 -50
6 -56 13 -9 10 3 12 59 10 39 -2 68 0 66 4 -3 4 34 8 81 8 48 1 74 -1 58 -3
-21 -3 -26 -6 -16 -12 10 -6 6 -11 -15 -16 -19 -5 -30 -3 -33 4 -2 7 -11 12
-20 11 -11 0 -12 -2 -4 -6 20 -8 14 -20 -13 -27 -14 -4 -23 -11 -20 -17 4 -6
-9 -8 -37 -4 l-43 5 40 -14 c22 -8 54 -15 70 -16 30 -1 30 -1 6 -11 -14 -5
-45 -12 -70 -14 -130 -13 -126 -12 -251 -46 -39 -11 -273 -15 -335 -6 -94 14
-225 51 -213 60 8 5 3 6 -14 3 -16 -4 -28 -2 -28 3 0 5 -7 12 -16 15 -8 3 -12
2 -9 -4 3 -6 1 -10 -4 -10 -6 0 -11 5 -11 10 0 6 -3 9 -7 8 -5 -1 -17 3 -29 9
-11 7 -32 14 -45 17 -13 2 -37 10 -54 17 -16 7 -32 13 -35 13 -3 1 -14 7 -25
14 -14 8 -17 14 -8 20 7 4 9 13 4 21 -6 9 -10 7 -14 -9 -5 -19 -8 -20 -28 -9
l-22 12 22 11 22 12 -28 12 c-25 11 -26 11 -10 -2 18 -14 17 -15 -3 -21 -24
-8 -93 33 -83 49 3 5 1 6 -5 2 -9 -5 -58 24 -121 71 -3 2 1 9 8 16 10 9 12 9
9 -3 -2 -9 4 -14 14 -14 10 1 15 -3 11 -9 -4 -6 -1 -7 7 -2 9 5 11 4 6 -3 -4
-7 -3 -12 3 -12 5 0 12 4 16 10 3 5 22 -2 42 -15 20 -14 41 -25 47 -25 6 0 5
-4 -2 -9 -11 -7 -11 -9 1 -14 7 -3 19 -2 25 2 13 8 -82 73 -113 77 -11 1 -22
3 -25 4 -3 1 -9 2 -14 1 -5 -1 -6 5 -3 14 4 9 1 15 -7 15 -7 0 -43 30 -79 67
-37 36 -67 64 -67 61 0 -3 -15 8 -32 25 -47 43 -87 65 -107 60 -12 -3 -26 6
-40 26 -13 17 -27 28 -33 25 -6 -4 -8 -3 -5 3 4 5 -4 19 -16 30 -12 12 -56 55
-97 97 -41 42 -78 76 -82 76 -4 0 -8 7 -8 16 0 8 -4 12 -10 9 -5 -3 -10 -1
-10 5 0 6 -10 22 -22 35 -13 13 -42 46 -65 73 -30 35 -50 49 -68 49 -14 0 -25
-4 -25 -9 0 -5 -6 -6 -12 -2 -8 5 -8 1 2 -12 22 -30 24 -30 16 -9 -6 16 -2 14
22 -8 18 -17 28 -36 25 -46 -2 -10 3 -23 11 -30 19 -16 22 -1 4 18 -11 10 -9
11 7 5 20 -8 20 -8 1 21 l-19 30 27 -24 c19 -18 23 -27 14 -32 -9 -6 0 -22 29
-57 32 -37 39 -52 30 -61 -8 -8 -6 -16 10 -32 15 -16 22 -18 28 -8 6 8 4 10
-5 4 -9 -6 -11 -4 -5 5 5 9 4 11 -3 6 -8 -5 -10 -2 -6 9 6 14 8 14 19 -2 7 -9
12 -24 10 -32 -2 -19 35 -62 48 -54 6 3 7 1 3 -5 -7 -11 139 -167 156 -167 3
0 10 -4 15 -9 5 -6 2 -6 -7 -1 -19 10 96 -96 163 -150 27 -22 51 -39 53 -37 3
1 11 -3 18 -10 37 -35 65 -56 70 -51 3 4 6 2 6 -4 0 -6 9 -9 20 -6 16 4 20 0
21 -18 1 -17 3 -19 6 -6 5 21 12 21 38 1 20 -16 20 -16 -2 -9 -18 5 -22 3 -17
-8 6 -17 44 -30 44 -16 0 4 16 -1 37 -13 20 -12 31 -24 25 -26 -7 -2 -9 -8 -6
-13 4 -6 11 -6 19 1 11 9 20 8 37 -4 12 -9 17 -16 11 -16 -7 0 -15 5 -18 10
-7 12 -25 13 -25 2 0 -11 90 -47 153 -63 27 -6 51 -18 54 -25 2 -7 11 -10 19
-7 8 3 14 1 14 -3 0 -5 14 -10 32 -10 18 -1 34 -6 36 -13 2 -6 8 -11 13 -11 6
0 7 4 4 10 -3 6 1 7 9 4 9 -3 13 -11 9 -17 -4 -6 -1 -7 8 -1 18 11 52 11 60 1
3 -5 22 -10 42 -12 19 -2 45 -8 56 -15 12 -6 21 -9 21 -7 0 3 24 -1 53 -7 55
-13 91 -11 82 5 -4 5 5 9 19 9 14 0 26 -4 26 -10 0 -5 8 -10 18 -10 14 0 15 2
2 10 -11 7 -2 9 30 9 37 -1 41 -2 20 -9 l-25 -8 25 -2 c22 -1 23 -2 6 -9 -24
-9 101 -7 161 3 28 5 40 12 37 20 -6 16 166 40 181 25 5 -5 20 -8 35 -8 20 1
21 2 5 6 -33 8 -41 23 -9 17 16 -2 35 -7 42 -9 6 -2 12 0 12 5 0 6 11 10 25
10 14 0 25 6 25 13 0 12 34 19 103 21 22 1 37 6 37 14 0 6 10 12 23 12 12 0
32 3 44 6 20 6 21 8 7 21 -8 9 -13 18 -10 20 3 3 12 -2 21 -11 9 -9 22 -16 28
-16 8 0 7 3 -2 9 -7 5 -9 11 -4 14 18 12 108 29 168 32 50 3 54 2 20 -4 l-40
-8 45 -1 c25 -1 50 2 56 6 14 9 25 52 13 52 -5 0 -4 9 3 19 7 11 16 17 20 15
4 -3 8 0 8 6 0 6 -7 13 -15 16 -8 4 -15 10 -15 15 0 4 7 5 17 2 10 -4 14 -2
10 4 -4 6 -1 14 5 16 8 4 7 6 -4 6 -9 1 -19 -3 -23 -9 -3 -5 -12 -7 -20 -4 -8
4 -12 10 -9 15 3 5 0 9 -5 9 -6 0 -11 4 -11 10 0 5 7 6 17 3 11 -4 14 -3 9 5
-4 7 0 15 10 19 16 6 16 7 -2 15 -13 5 -7 7 21 5 22 -1 40 3 40 8 0 6 4 16 9
24 6 10 5 12 -2 7 -14 -8 -12 20 3 44 7 12 6 13 -6 3 -17 -13 -61 -14 -52 0 3
4 12 6 20 3 16 -7 57 17 47 27 -4 4 3 15 16 25 l22 18 -32 27 c-17 15 -35 25
-40 22 -4 -2 -16 5 -26 16 -16 18 -16 19 -1 13 9 -3 17 -11 18 -18 0 -6 4 -2
8 9 6 13 4 23 -5 28 -8 4 -14 13 -14 18 0 6 5 7 10 4 6 -3 10 3 10 14 0 11 -5
23 -12 27 -7 5 -8 3 -3 -7 7 -12 6 -12 -7 -1 -9 7 -15 25 -14 42 1 16 0 28 -2
25 -2 -2 -11 3 -20 11 -10 11 -28 15 -54 12 -21 -2 -38 0 -38 4 0 5 11 8 24 8
20 0 24 4 21 22 -3 13 -9 24 -15 26 -6 2 -7 8 -4 13 3 6 11 5 20 -2 8 -6 17
-9 21 -5 3 3 1 6 -5 6 -6 0 -9 6 -6 13 2 7 -6 25 -18 39 -13 14 -24 30 -25 37
-3 12 10 15 20 4 9 -8 57 -11 57 -2 0 3 -10 10 -22 16 -20 8 -18 10 14 9 20
-1 34 -4 32 -8 -3 -4 5 -6 17 -5 21 1 21 2 -3 22 -13 11 -37 30 -53 43 -17 13
-23 21 -15 17 8 -3 7 0 -3 7 -10 7 -28 21 -39 30 -11 10 -25 15 -30 12 -4 -3
-7 0 -6 8 4 19 -41 22 -120 7 -37 -6 -85 -13 -107 -15 -22 -1 -40 -3 -40 -4 0
-3 -28 -9 -130 -32 -55 -12 -102 -25 -103 -30 -2 -4 -7 -6 -10 -4 -4 2 -40 -2
-81 -10 -40 -8 -77 -12 -81 -9 -14 9 -255 -14 -258 -25 -2 -5 -16 -10 -30 -9
l-27 1 25 8 c20 6 16 8 -20 7 -47 0 -150 18 -185 33 -11 4 -40 13 -65 19 -25
5 -58 13 -75 17 -16 4 -33 7 -37 6 -5 -1 -8 3 -8 9 0 6 -6 9 -14 6 -7 -3 -18
-1 -23 4 -5 5 -22 11 -38 13 -36 4 -85 23 -85 32 0 3 8 3 18 0 14 -5 13 -3 -3
9 -11 9 -21 11 -23 6 -2 -5 -14 1 -27 12 -13 12 -59 40 -102 62 -43 22 -90 49
-105 60 -14 11 -41 31 -59 45 -18 14 -40 32 -49 41 -9 8 -26 22 -37 30 -24 17
-145 122 -179 156 -13 13 -26 23 -30 23 -3 0 -15 11 -26 25 -16 21 -23 23 -35
14 -11 -10 -14 -10 -11 2 2 8 -2 13 -8 12 -7 -1 -10 6 -7 17 3 11 0 20 -6 20
-6 0 -17 15 -24 33 -8 17 -21 38 -30 45 -17 14 -41 7 -31 -9 3 -5 9 -7 13 -5
4 3 8 -2 8 -10 0 -12 -5 -10 -21 6 -18 17 -19 22 -6 30 12 7 11 12 -5 29 -10
12 -21 19 -24 16 -3 -4 1 -10 9 -15 10 -6 11 -10 3 -10 -7 0 -17 10 -24 21 -8
15 -8 19 0 15 6 -4 11 -3 11 1 0 12 -49 63 -60 63 -6 0 -10 6 -10 13 0 8 -11
24 -25 37 -27 25 -35 17 -10 -10 13 -15 13 -17 0 -17 -8 0 -13 3 -10 5 3 3 0
11 -6 18 -6 8 -9 21 -5 29 3 9 -6 23 -24 37 -16 11 -27 25 -24 29 3 5 -1 6 -9
4 -16 -7 -70 52 -61 66 3 6 -4 13 -16 16 -12 3 -19 11 -16 19 3 8 1 13 -5 11
-6 -1 -16 7 -22 18 -7 11 -21 28 -31 37 -10 10 -15 18 -11 18 4 0 -1 8 -11 18
-34 31 -60 66 -44 58 9 -4 8 -2 -2 7 -10 8 -18 22 -18 31 0 9 -6 16 -14 16 -8
0 -18 5 -22 12 -5 7 -3 8 6 3 7 -5 5 3 -6 17 -10 14 -22 24 -26 21 -4 -2 -5 2
-3 10 7 18 -30 51 -47 42 -10 -6 -10 -5 -2 5 15 15 -35 94 -71 113 -13 6 -24
16 -23 20 1 16 -43 68 -53 62 -5 -4 -9 -3 -8 2 4 25 -4 25 -26 -2 -14 -16 -24
-23 -23 -15 2 8 -3 14 -9 13 -7 -2 -12 0 -12 5 3 19 -2 33 -10 28 -5 -3 -11 4
-14 15 -3 12 -10 18 -17 14 -6 -3 -9 -2 -8 3 2 5 -10 25 -27 44 -16 19 -39 45
-50 58 l-20 25 27 -23 c14 -13 28 -19 31 -15 3 5 -3 15 -13 23 -10 8 -16 18
-13 23 3 6 1 7 -5 3 -7 -4 -12 -3 -12 2 0 4 -13 24 -30 42 -16 18 -30 31 -30
28 0 -3 -15 8 -33 25 -39 38 -65 59 -140 116 -31 24 -57 45 -57 47 0 2 7 4 16
4 9 0 12 -5 8 -12 -5 -9 -2 -9 9 1 18 15 23 26 7 16 -19 -12 -10 9 18 39 25
29 25 29 1 8 -14 -12 -29 -22 -34 -22 -5 0 -17 -7 -27 -17 -11 -9 -18 -11 -18
-5 0 7 5 12 11 12 5 0 8 4 4 9 -3 5 4 12 15 16 11 3 20 11 20 17 0 6 3 8 7 5
3 -4 13 3 21 14 12 17 16 18 23 8 7 -11 9 -10 9 4 0 10 8 21 18 24 9 4 23 14
30 22 12 14 13 14 8 -1 -3 -10 -3 -18 -1 -18 11 0 55 24 55 31 0 5 28 17 60
23 10 3 65 41 72 51 4 5 13 10 20 10 7 0 13 7 13 15 0 8 7 15 15 15 24 1 78
38 91 62 7 12 16 20 22 16 5 -3 8 0 5 8 -5 14 59 69 95 82 9 3 17 11 17 17 0
5 6 10 13 10 7 0 23 14 37 30 14 17 29 30 33 30 10 0 37 26 37 35 0 3 -21 -11
-47 -31 -27 -20 -47 -40 -45 -46 1 -5 -2 -7 -7 -3 -9 5 -47 -11 -61 -25 -3 -3
-25 -21 -50 -39 l-45 -33 38 36 c20 20 37 41 37 47 0 5 4 8 9 4 6 -3 15 3 21
14 7 13 16 18 27 14 12 -5 14 -3 8 8 -4 8 -5 11 -1 7 5 -4 35 12 68 34 32 22
62 38 65 34 4 -3 1 -6 -6 -6 -7 0 -9 -4 -6 -10 7 -11 42 8 50 28 2 7 1 11 -4
7 -5 -3 -11 -2 -14 2 -2 5 -2 1 0 -7 3 -11 1 -12 -8 -3 -14 14 -3 34 16 26 10
-3 15 1 15 12 0 10 -5 13 -12 9 -7 -4 -8 -3 -4 5 4 6 11 9 15 7 10 -6 51 22
51 34 0 19 88 93 144 121 17 8 30 21 28 28 -1 7 2 10 8 6 14 -8 95 62 95 82 0
9 6 18 14 21 10 3 11 0 5 -9 -4 -8 8 -2 27 12 18 15 34 31 34 37 0 6 3 14 8
18 4 4 7 -1 7 -12 0 -11 3 -15 8 -8 10 15 93 74 104 74 5 0 6 -5 2 -12 -4 -7
-3 -8 5 -4 8 6 9 11 1 21 -8 9 -5 11 13 8 19 -4 31 4 55 38 18 24 32 39 32 35
0 -5 7 -3 15 4 8 7 12 16 9 21 -3 5 2 6 10 3 11 -4 33 11 65 44 27 28 51 48
54 46 2 -2 25 20 51 51 26 30 52 52 58 49 7 -4 8 -2 4 4 -4 7 -2 12 3 12 6 0
10 4 9 9 -2 4 13 28 32 52 54 67 160 231 160 247 0 24 43 92 53 85 6 -3 7 -1
3 6 -9 14 38 63 50 52 4 -3 4 -1 0 6 -3 6 8 36 25 65 51 86 160 331 154 345
-2 8 0 11 5 8 5 -3 12 7 15 22 4 15 13 44 22 63 33 73 40 126 36 246 -4 116
-13 172 -13 81 0 -25 -4 -48 -9 -51 -12 -8 -22 167 -11 201 11 34 18 236 8
220 -4 -7 -8 11 -8 38 0 28 -3 61 -6 75 -4 20 -3 22 5 10 8 -11 11 4 11 60 0
48 -4 70 -9 61 -7 -10 -13 4 -21 47 -7 34 -16 59 -21 56 -5 -3 -7 1 -4 8 7 19
-10 73 -23 71 -5 -1 -9 9 -7 22 1 15 -2 22 -8 18 -6 -4 -8 0 -4 11 4 9 3 15
-2 12 -8 -5 -31 35 -31 55 0 28 -160 183 -220 214 -28 14 -48 30 -45 35 8 13
-79 61 -99 54 -11 -4 -16 -2 -14 7 2 8 -3 13 -11 11 -7 -1 -19 2 -27 9 -7 6
-19 7 -26 3 -7 -4 -10 -3 -5 1 9 10 -51 37 -64 29 -5 -3 -9 -1 -9 4 0 6 -7 13
-16 16 -9 4 -13 2 -8 -5 4 -8 1 -8 -12 -1 -26 13 -142 41 -184 44 -19 1 -37 6
-41 10 -18 27 -278 35 -489 16z m-105 -68 c3 -5 -1 -10 -10 -10 -9 0 -13 5
-10 10 3 6 8 10 10 10 2 0 7 -4 10 -10z m-194 -18 c-7 -2 -18 1 -23 6 -8 8 -4
9 13 5 13 -4 18 -8 10 -11z m139 10 c0 -5 -7 -9 -15 -9 -8 0 -15 4 -15 9 0 4
7 8 15 8 8 0 15 -4 15 -8z m-177 -19 c-7 -2 -19 -2 -25 0 -7 3 -2 5 12 5 14 0
19 -2 13 -5z m1327 -92 c13 -10 13 -11 0 -10 -8 0 -28 11 -45 25 l-30 26 30
-16 c17 -8 37 -20 45 -25z m-1290 -31 c0 -5 -7 -7 -15 -4 -8 4 -15 1 -15 -5 0
-6 -7 -8 -16 -4 -13 5 -13 7 -2 14 18 12 48 11 48 -1z m-170 -40 c-20 -13 -33
-13 -25 0 3 6 14 10 23 10 15 0 15 -2 2 -10z m-260 -40 c-35 -24 -54 -31 -30
-11 14 11 30 21 35 21 6 0 3 -5 -5 -10z m148 -12 c-2 -8 7 -13 20 -12 29 1 28
-7 -6 -28 -15 -9 -49 -31 -77 -49 -27 -17 -47 -28 -43 -24 4 5 3 14 -3 21 -8
9 -4 15 13 24 22 11 22 10 4 -4 -11 -9 -15 -16 -9 -16 5 0 23 11 38 24 16 14
31 25 34 24 18 -2 31 3 31 12 0 6 -10 10 -22 10 -21 0 -21 0 -2 15 24 18 25
18 22 3z m-108 -43 c0 -2 -10 -9 -22 -15 -22 -11 -22 -10 -4 4 21 17 26 19 26
11z m-20 -91 c-7 -7 -16 -11 -21 -9 -4 3 -13 -4 -19 -15 -13 -24 -26 -26 -34
-4 -3 8 -2 13 3 10 5 -3 14 1 21 10 7 8 19 13 26 10 7 -3 16 -1 19 4 6 9 -8
14 -28 11 -5 -1 -6 3 -2 9 4 7 13 7 26 -1 16 -8 18 -13 9 -25z m-106 -43 c-15
-23 -21 -26 -31 -16 -8 9 -7 16 7 28 10 8 21 13 24 10 3 -4 6 0 6 7 0 7 3 11
6 7 4 -3 -2 -19 -12 -36z m26 -31 c-13 -11 -17 -20 -10 -20 10 0 10 -3 0 -15
-7 -8 -18 -15 -24 -14 -7 0 -6 2 2 6 6 2 12 9 12 14 0 4 -6 6 -14 3 -8 -3 -17
1 -22 8 -4 7 -4 10 1 6 11 -10 47 11 40 23 -4 5 4 9 16 9 l22 0 -23 -20z m-70
-4 c0 -3 -4 -8 -10 -11 -5 -3 -10 -1 -10 4 0 6 5 11 10 11 6 0 10 -2 10 -4z
m15 -44 c-3 -3 -11 0 -18 7 -9 10 -8 11 6 5 10 -3 15 -9 12 -12z m2208 -234
c9 -6 9 -8 0 -8 -7 0 -14 -8 -14 -17 -1 -10 -5 -1 -9 20 -4 21 -4 50 -1 65 5
24 6 22 9 -13 2 -22 9 -43 15 -47z m-2146 37 c0 -8 -4 -12 -9 -9 -4 3 -8 9 -8
15 0 5 4 9 8 9 5 0 9 -7 9 -15z m648 -45 c-3 -5 -12 -10 -18 -10 -7 0 -6 4 3
10 19 12 23 12 15 0z m1502 -42 c-3 -7 -5 -2 -5 12 0 14 2 19 5 13 2 -7 2 -19
0 -25z m-1214 15 c-7 -2 -21 -2 -30 0 -10 3 -4 5 12 5 17 0 24 -2 18 -5z
m-128 -18 c33 -7 49 -14 35 -14 -22 -1 -23 -3 -7 -12 16 -9 49 -7 100 7 9 3
17 1 17 -5 0 -6 -12 -11 -27 -12 l-28 -1 25 -7 c21 -6 17 -8 -25 -14 -27 -4
-61 -10 -74 -13 -19 -6 -23 -4 -19 7 5 12 -8 13 -73 9 -72 -5 -138 7 -123 23
3 3 14 1 25 -6 10 -6 22 -8 26 -4 4 5 1 12 -7 17 -12 7 -12 10 3 16 10 4 23 2
30 -5 6 -6 22 -10 37 -10 20 1 21 2 5 6 -11 3 -24 10 -30 15 -7 8 -5 9 7 5 9
-3 34 -8 55 -11 l38 -6 -35 14 c-44 18 -31 18 45 1z m42 9 c-3 -3 -12 -4 -19
-1 -8 3 -5 6 6 6 11 1 17 -2 13 -5z m246 -21 c-13 -2 -33 -2 -45 0 -13 2 -3 4
22 4 25 0 35 -2 23 -4z m-518 -23 c-3 -5 -14 -10 -23 -9 -14 0 -13 2 3 9 27
11 27 11 20 0z m455 -10 c8 -5 11 -10 5 -10 -5 0 -17 5 -25 10 -8 5 -10 10 -5
10 6 0 17 -5 25 -10z m-452 -13 c39 3 32 0 -38 -20 -47 -13 -96 -29 -108 -36
-25 -13 -38 -9 -27 8 3 6 16 11 28 11 17 0 19 2 7 9 -8 6 -19 7 -25 4 -5 -4
-7 -3 -3 2 11 12 69 15 62 3 -3 -5 3 -4 15 4 12 7 21 17 21 22 0 6 5 5 11 -1
6 -6 31 -9 57 -6z m199 -13 c-3 -3 -12 -4 -19 -1 -8 3 -5 6 6 6 11 1 17 -2 13
-5z m-157 -24 c-51 -17 -72 -19 -57 -4 7 8 65 22 92 23 11 0 -5 -8 -35 -19z
m-650 -14 c0 -3 -4 -8 -10 -11 -5 -3 -10 -1 -10 4 0 6 5 11 10 11 6 0 10 -2
10 -4z m675 -36 c-3 -5 -12 -10 -18 -10 -7 0 -6 4 3 10 19 12 23 12 15 0z
m1035 -30 c0 -5 -2 -10 -4 -10 -3 0 -8 5 -11 10 -3 6 -1 10 4 10 6 0 11 -4 11
-10z m-197 -18 c-2 -7 4 -9 14 -5 12 5 14 3 8 -7 -6 -10 -4 -12 8 -7 10 3 17
2 17 -4 0 -6 4 -8 8 -5 9 5 46 -33 39 -40 -3 -3 -20 4 -38 15 -19 12 -40 21
-47 21 -16 0 -42 24 -42 40 0 6 8 10 18 8 9 -2 16 -9 15 -16z m222 -12 c3 -5
2 -10 -4 -10 -5 0 -13 5 -16 10 -3 6 -2 10 4 10 5 0 13 -4 16 -10z m70 -30 c3
-5 2 -10 -4 -10 -5 0 -13 5 -16 10 -3 6 -2 10 4 10 5 0 13 -4 16 -10z m-79
-85 c32 -32 18 -32 -20 0 -16 14 -24 25 -17 25 7 0 23 -11 37 -25z m-6 -40
c13 -14 21 -25 18 -25 -2 0 -15 11 -28 25 -13 14 -21 25 -18 25 2 0 15 -11 28
-25z m488 -367 c-10 -45 -18 -61 -18 -36 0 30 13 78 20 78 4 0 4 -19 -2 -42z
m-21 -80 c-3 -8 -6 -5 -6 6 -1 11 2 17 5 13 3 -3 4 -12 1 -19z m-221 -114 c-4
-9 -9 -15 -11 -12 -3 3 -3 13 1 22 4 9 9 15 11 12 3 -3 3 -13 -1 -22z m-113
-589 c-3 -9 -8 -14 -10 -11 -3 3 -2 9 2 15 9 16 15 13 8 -4z m-62 -88 c-10 -9
-11 -8 -5 6 3 10 9 15 12 12 3 -3 0 -11 -7 -18z m-1177 -9 c-4 -5 -9 -7 -12
-4 -3 3 -12 0 -21 -7 -14 -10 -14 -10 -4 4 13 16 46 23 37 7z m-59 -38 c3 -5
1 -10 -4 -10 -6 0 -11 5 -11 10 0 6 2 10 4 10 3 0 8 -4 11 -10z m1055 -3 c0
-2 -15 -16 -32 -33 l-33 -29 29 33 c28 30 36 37 36 29z m46 -9 c4 -7 3 -10 -1
-5 -10 9 -47 -22 -39 -34 3 -5 0 -9 -6 -9 -6 0 -9 -4 -6 -9 3 -5 -5 -12 -19
-15 -14 -4 -25 -11 -25 -17 0 -6 5 -7 10 -4 16 10 11 -1 -7 -16 -11 -10 -14
-10 -9 -1 4 6 3 12 -2 12 -14 0 -34 -27 -25 -32 4 -3 3 -3 -4 -2 -6 2 -17 -4
-24 -12 -10 -12 -9 -14 7 -9 10 3 7 0 -7 -7 -26 -13 -29 -17 -29 -38 0 -5 -11
-10 -25 -10 -14 0 -25 5 -25 11 0 6 7 9 15 6 8 -4 17 -1 21 5 4 7 3 8 -4 4
-29 -18 -8 15 31 47 23 20 69 61 102 92 33 30 61 55 62 55 1 0 5 -6 9 -12z
m-47 -135 c-7 -10 -27 -31 -45 -46 -24 -21 -34 -24 -40 -15 -4 7 -4 10 1 6 11
-11 36 12 28 25 -3 5 -2 7 4 4 6 -4 21 5 33 18 27 29 35 32 19 8z m-193 -88
c1 -8 -3 -18 -8 -22 -6 -3 -8 -1 -4 5 3 6 2 13 -4 17 -5 3 -10 1 -10 -4 0 -6
-5 -11 -12 -11 -6 0 -3 9 7 20 19 21 27 20 31 -5z m71 -28 c-6 -15 -15 -27
-19 -27 -5 0 -16 -8 -26 -17 -39 -39 -50 -45 -58 -32 -4 7 -3 9 3 6 6 -4 32
17 59 46 27 29 50 52 51 52 2 -1 -3 -13 -10 -28z m-106 -10 c-6 -8 -9 -17 -6
-20 3 -4 2 -5 -2 -2 -3 3 -11 0 -18 -5 -8 -7 -12 -5 -12 5 0 8 4 12 8 10 3 -3
12 2 19 10 7 8 15 15 17 15 3 0 0 -6 -6 -13z m-75 -52 c-1 -8 -6 -18 -11 -22
-4 -4 -5 -2 -1 5 4 7 1 12 -8 12 -9 0 -15 -6 -13 -12 1 -7 -3 -12 -10 -11 -6
2 -15 -6 -18 -17 -4 -11 -12 -17 -21 -13 -9 3 -14 -1 -14 -13 0 -14 -3 -15
-12 -6 -6 6 -10 13 -7 15 26 24 102 77 109 77 4 0 7 -7 6 -15z m64 -38 c0 -8
-11 -19 -25 -25 -15 -7 -25 -8 -25 -2 0 6 7 10 16 10 8 0 13 4 10 9 -5 8 2 14
22 20 1 1 2 -5 2 -12z m-180 -45 c0 -13 -12 -22 -22 -16 -10 6 -1 24 13 24 5
0 9 -4 9 -8z m-15 -92 c-10 -11 -21 -18 -23 -15 -3 3 3 12 14 20 27 20 30 18
9 -5z m-85 -64 c0 -2 -12 -11 -27 -20 l-28 -17 24 20 c23 21 31 25 31 17z
m-15 -56 c-3 -5 -12 -10 -18 -10 -7 0 -6 4 3 10 19 12 23 12 15 0z m-145 -4
c0 -2 -8 -10 -17 -17 -16 -13 -17 -12 -4 4 13 16 21 21 21 13z m107 -10 c0 -8
-3 -15 -6 -14 -20 2 -30 -4 -27 -14 1 -7 1 -9 -2 -5 -2 4 -16 1 -30 -8 -16
-10 -11 -2 13 19 44 40 52 43 52 22z m-107 -70 c0 -2 -8 -10 -17 -17 -16 -13
-17 -12 -4 4 13 16 21 21 21 13z m-105 -16 c-3 -5 -12 -10 -18 -10 -7 0 -6 4
3 10 19 12 23 12 15 0z m-1051 -23 c-11 -6 -22 -15 -26 -21 -4 -6 -8 -7 -8 -2
0 14 34 44 44 38 5 -2 0 -9 -10 -15z m1011 -6 c3 -5 1 -12 -5 -16 -5 -3 -10 1
-10 9 0 18 6 21 15 7z m-1075 -5 c0 -2 -8 -10 -17 -17 -16 -13 -17 -12 -4 4
13 16 21 21 21 13z m1165 -6 c-3 -5 -11 -10 -16 -10 -6 0 -7 5 -4 10 3 6 11
10 16 10 6 0 7 -4 4 -10z m-124 -13 c-6 -8 -9 -16 -6 -19 3 -2 -2 -5 -10 -5
-13 0 -13 3 2 19 19 21 31 25 14 5z m79 -17 c0 -5 -5 -10 -11 -10 -5 0 -7 5
-4 10 3 6 8 10 11 10 2 0 4 -4 4 -10z m-220 -130 c0 -5 -4 -10 -10 -10 -5 0
-10 5 -10 10 0 6 5 10 10 10 6 0 10 -4 10 -10z m-35 -29 c-3 -6 -11 -11 -16
-11 -5 0 -4 6 3 14 14 16 24 13 13 -3z m-295 -315 c0 -2 -8 -10 -17 -17 -16
-13 -17 -12 -4 4 13 16 21 21 21 13z m-1443 -421 c-9 -7 -15 -14 -13 -16 2 -2
-9 -4 -24 -5 -31 -1 -25 11 15 33 25 14 43 4 22 -12z m480 -161 c-3 -3 -12 -4
-19 -1 -8 3 -5 6 6 6 11 1 17 -2 13 -5z m-124 -21 c-7 -2 -19 -2 -25 0 -7 3
-2 5 12 5 14 0 19 -2 13 -5z m-408 -12 c3 -5 2 -12 -3 -15 -5 -3 -9 1 -9 9 0
17 3 19 12 6z m522 -47 c-3 -3 -12 -4 -19 -1 -8 3 -5 6 6 6 11 1 17 -2 13 -5z
m102 2 c-2 -2 -22 -6 -44 -9 -27 -4 -35 -3 -25 3 14 9 79 15 69 6z m158 -2
c-3 -3 -12 -4 -19 -1 -8 3 -5 6 6 6 11 1 17 -2 13 -5z m-364 -16 c36 -17 34
-28 -4 -28 -23 0 -30 4 -26 14 3 8 1 17 -6 20 -7 2 -7 5 -1 5 5 1 22 -5 37
-11z m232 2 c-3 -5 -16 -10 -28 -9 -20 1 -20 2 3 9 14 4 26 8 28 9 2 1 0 -3
-3 -9z m-355 -10 c0 -5 -5 -10 -11 -10 -5 0 -7 5 -4 10 3 6 8 10 11 10 2 0 4
-4 4 -10z m234 2 c3 -5 -8 -6 -25 -4 -16 2 -29 6 -29 8 0 8 49 4 54 -4z m-279
-12 c3 -5 1 -10 -4 -10 -6 0 -11 5 -11 10 0 6 2 10 4 10 3 0 8 -4 11 -10z
m111 -12 c-12 -7 -21 -7 -28 0 -6 6 0 10 18 10 23 0 24 -2 10 -10z m-170 -10
c4 -6 3 -8 -4 -4 -6 3 -13 2 -17 -4 -3 -5 -11 -10 -16 -10 -11 0 12 29 23 30
4 0 10 -5 14 -12z m264 -9 c-18 -6 -12 -7 25 -4 56 5 51 0 -12 -14 -25 -5 -41
-5 -37 0 3 5 -2 9 -11 9 -9 0 -14 -4 -11 -9 7 -10 -52 -26 -61 -17 -4 3 4 6
17 6 13 0 20 3 16 7 -9 9 43 31 74 31 l25 0 -25 -9z m245 1 c29 -6 17 -7 -40
-3 -44 3 -82 7 -84 9 -8 7 84 3 124 -6z m171 -27 c-2 -2 -11 0 -20 3 -14 5
-15 9 -5 15 12 7 34 -10 25 -18z m814 -10 c0 -8 -5 -11 -10 -8 -6 4 -7 12 -3
18 4 8 1 7 -9 -1 -16 -13 -17 -12 -9 27 2 10 31 -23 31 -36z m-1016 19 c3 -5
22 -9 42 -10 57 -2 53 -12 -5 -12 -29 0 -50 4 -46 9 3 5 -3 12 -12 14 -16 4
-16 5 -1 6 9 0 19 -3 22 -7z m-479 -20 c-5 -4 -10 -16 -10 -26 0 -11 -7 -21
-15 -23 -12 -4 -12 -3 -1 5 10 7 11 15 3 27 -9 17 -10 17 -16 -3 -5 -14 -12
-19 -23 -15 -12 5 -14 3 -8 -7 6 -9 4 -11 -5 -5 -16 10 35 55 64 55 12 0 17
-4 11 -8z m334 -8 c10 -9 -35 -3 -49 6 -11 8 -7 9 15 4 17 -4 32 -8 34 -10z
m-217 -7 c-15 -7 -26 -7 -33 0 -7 7 1 10 23 10 31 1 32 0 10 -10z m143 3 c3
-5 -1 -10 -9 -10 -9 0 -16 5 -16 10 0 6 4 10 9 10 6 0 13 -4 16 -10z m1257
-22 c-3 -15 -2 -19 7 -14 6 4 11 4 10 -1 -4 -21 2 -34 13 -27 6 4 8 3 4 -4 -3
-6 2 -15 11 -21 10 -6 13 -11 7 -11 -10 0 -37 27 -74 75 -8 10 -10 16 -3 12 6
-4 14 -3 18 3 10 16 14 11 7 -12z m-697 -14 c22 -13 48 -26 58 -30 9 -3 17
-10 17 -15 0 -5 -15 -2 -32 8 -18 9 -39 16 -47 14 -8 -1 -10 2 -5 10 5 9 1 11
-14 7 -16 -5 -19 -2 -14 11 5 13 3 14 -9 4 -10 -8 -19 -9 -29 -1 -12 8 -12 9
3 4 9 -3 17 -1 17 4 0 14 10 11 55 -16z m-910 -3 c3 -5 1 -12 -5 -16 -5 -3
-10 1 -10 9 0 18 6 21 15 7z m143 -19 c-2 -8 -12 -16 -23 -17 -11 -1 -33 -5
-50 -9 l-30 -6 30 14 c17 9 24 15 16 16 -11 0 -10 4 4 14 23 16 57 9 53 -12z
m737 -62 c3 -5 2 -10 -4 -10 -5 0 -13 5 -16 10 -3 6 -2 10 4 10 5 0 13 -4 16
-10z m805 6 c0 -3 -4 -8 -10 -11 -5 -3 -10 -1 -10 4 0 6 5 11 10 11 6 0 10 -2
10 -4z m110 -120 c0 -2 -8 -10 -17 -17 -16 -13 -17 -12 -4 4 13 16 21 21 21
13z m-620 -21 c11 -13 10 -14 -4 -9 -9 3 -16 10 -16 15 0 13 6 11 20 -6z m647
-32 c0 -9 -4 -10 -14 -2 -7 6 -13 12 -13 14 0 1 6 2 13 2 8 0 14 -6 14 -14z
m-562 -33 c3 -5 1 -10 -4 -10 -6 0 -11 5 -11 10 0 6 2 10 4 10 3 0 8 -4 11
-10z m590 -19 c-6 -5 -25 10 -25 20 0 5 6 4 14 -3 8 -7 12 -15 11 -17z m91
-128 c15 -20 23 -33 16 -29 -13 8 -56 66 -49 66 3 0 17 -17 33 -37z m-486 -77
c0 -11 -19 -15 -25 -6 -3 5 1 10 9 10 9 0 16 -2 16 -4z m664 -72 c5 -14 4 -15
-9 -4 -17 14 -19 20 -6 20 5 0 12 -7 15 -16z m-560 -50 c5 -14 4 -15 -9 -4
-17 14 -19 20 -6 20 5 0 12 -7 15 -16z m171 -196 c21 -39 5 -34 -21 5 -11 18
-25 31 -30 30 -5 -1 -10 10 -11 24 l-1 26 24 -29 c13 -16 31 -41 39 -56z m93
-124 c34 -47 58 -83 52 -79 -16 10 -132 165 -123 164 4 0 36 -39 71 -85z m86
-160 c10 -25 -1 -29 -14 -5 -6 12 -7 21 -1 21 5 0 12 -7 15 -16z m266 -364 c0
-5 -4 -10 -10 -10 -5 0 -10 5 -10 10 0 6 5 10 10 10 6 0 10 -4 10 -10z m2386
-232 c-27 -6 -43 -5 -50 3 -8 9 -7 11 4 7 8 -3 24 -2 35 2 11 4 27 5 35 2 9
-4 -1 -9 -24 -14z m-66 -8 c0 -5 -17 -9 -37 -9 -38 1 -38 1 -8 9 43 11 45 11
45 0z m83 -107 c-7 -2 -21 -2 -30 0 -10 3 -4 5 12 5 17 0 24 -2 18 -5z m-1828
-23 c10 -11 16 -20 13 -20 -3 0 -13 9 -23 20 -10 11 -16 20 -13 20 3 0 13 -9
23 -20z m1930 10 c7 -12 -12 -12 -40 0 -18 8 -17 9 7 9 15 1 30 -3 33 -9z
m-125 -20 c0 -5 -9 -10 -21 -10 -11 0 -17 5 -14 10 3 6 13 10 21 10 8 0 14 -4
14 -10z m-63 -17 c-2 -2 -18 -5 -35 -8 -17 -2 -36 -6 -42 -10 -5 -3 -10 -3
-10 0 0 10 63 33 77 28 8 -3 12 -7 10 -10z m-102 -13 c-3 -5 -14 -10 -23 -10
-15 0 -15 2 -2 10 20 13 33 13 25 0z m155 -7 c0 -5 -12 -9 -27 -10 -19 -1 -22
1 -12 8 17 11 39 12 39 2z m-203 -9 c-3 -3 -12 -4 -19 -1 -8 3 -5 6 6 6 11 1
17 -2 13 -5z m123 -14 c0 -5 -7 -7 -15 -4 -8 4 -15 8 -15 10 0 2 7 4 15 4 8 0
15 -4 15 -10z m-40 -11 c0 -6 -6 -9 -14 -6 -8 3 -31 1 -51 -4 -20 -6 -39 -8
-42 -5 -6 6 53 24 85 25 12 1 22 -4 22 -10z m-123 -25 c-3 -3 -12 -4 -19 -1
-8 3 -5 6 6 6 11 1 17 -2 13 -5z m413 -8 c0 -2 -9 -6 -20 -9 -11 -3 -20 -1
-20 4 0 5 9 9 20 9 11 0 20 -2 20 -4z m-2205 -46 c3 -5 2 -10 -4 -10 -5 0 -13
5 -16 10 -3 6 -2 10 4 10 5 0 13 -4 16 -10z m2195 -70 c0 -5 -19 -9 -42 -9
l-43 2 35 7 c19 4 38 8 43 9 4 0 7 -3 7 -9z m47 -26 c-3 -3 -12 -4 -19 -1 -8
3 -5 6 6 6 11 1 17 -2 13 -5z m-2063 -63 c-3 -3 -15 6 -27 18 l-22 24 27 -19
c14 -10 24 -21 22 -23z m1881 -1 c3 -5 1 -10 -4 -10 -6 0 -11 5 -11 10 0 6 2
10 4 10 3 0 8 -4 11 -10z m93 0 c18 0 23 -3 14 -9 -16 -10 -60 -2 -69 12 -4 7
0 8 11 4 10 -4 30 -7 44 -7z m-1558 -44 c0 -2 -8 -10 -17 -17 -16 -13 -17 -12
-4 4 13 16 21 21 21 13z m1497 -2 c-3 -3 -12 -4 -19 -1 -8 3 -5 6 6 6 11 1 17
-2 13 -5z m-357 -14 c12 -8 11 -10 -7 -10 -12 0 -25 5 -28 10 -8 13 15 13 35
0z m47 4 c-3 -3 -12 -4 -19 -1 -8 3 -5 6 6 6 11 1 17 -2 13 -5z m363 -4 c-20
-13 -33 -13 -25 0 3 6 14 10 23 10 15 0 15 -2 2 -10z m-475 -10 c-3 -5 -14
-10 -23 -9 -14 0 -13 2 3 9 27 11 27 11 20 0z m-75 -10 c0 -13 -11 -13 -30 0
-12 8 -11 10 8 10 12 0 22 -4 22 -10z m-953 -6 c-3 -3 -12 -4 -19 -1 -8 3 -5
6 6 6 11 1 17 -2 13 -5z m43 -4 c0 -5 -5 -10 -11 -10 -5 0 -7 5 -4 10 3 6 8
10 11 10 2 0 4 -4 4 -10z m40 -14 c0 -3 -4 -8 -10 -11 -5 -3 -10 -1 -10 4 0 6
5 11 10 11 6 0 10 -2 10 -4z m1190 -12 c0 -2 -7 -4 -15 -4 -8 0 -15 4 -15 10
0 5 7 7 15 4 8 -4 15 -8 15 -10z m-1296 -33 c-2 -2 -10 -1 -19 3 -13 5 -14 8
-3 20 11 12 14 12 19 -3 4 -9 5 -18 3 -20z m1089 32 c-7 -2 -19 -2 -25 0 -7 3
-2 5 12 5 14 0 19 -2 13 -5z m-386 -29 c-3 -3 -12 -4 -19 -1 -8 3 -5 6 6 6 11
1 17 -2 13 -5z m388 -4 c3 -6 -1 -7 -9 -4 -18 7 -21 14 -7 14 6 0 13 -4 16
-10z m-19 -13 c4 -4 -9 -7 -29 -7 -20 0 -38 4 -41 8 -6 10 60 9 70 -1z m421 7
c-3 -3 -12 -4 -19 -1 -8 3 -5 6 6 6 11 1 17 -2 13 -5z m-112 -28 c-38 -13
-104 -29 -145 -36 -41 -7 -82 -19 -91 -27 -8 -7 -28 -13 -43 -13 -16 0 -25 -4
-21 -10 3 -5 -1 -10 -9 -10 -8 0 -17 4 -20 9 -3 4 -18 7 -33 5 -16 -2 -20 -1
-10 2 9 3 17 9 17 12 0 4 25 7 57 8 40 0 59 5 68 17 7 10 24 17 39 17 15 0 25
4 22 8 -3 5 17 8 43 8 27 -1 47 2 44 7 -2 4 11 7 29 8 18 1 44 5 58 9 14 4 34
8 45 8 11 1 -11 -10 -50 -22z m-105 -76 c0 -5 -10 -10 -22 -10 -19 0 -20 2 -8
10 19 13 30 13 30 0z"/>
<path d="M3300 3430 c0 -5 5 -10 11 -10 5 0 7 5 4 10 -3 6 -8 10 -11 10 -2 0
-4 -4 -4 -10z"/>
<path d="M3029 7675 c-1 -3 -2 -10 -3 -15 0 -6 -8 -15 -16 -20 -8 -5 -10 -10
-5 -10 18 0 32 15 32 33 0 16 -5 24 -8 12z"/>
<path d="M3409 7653 c-13 -16 -12 -17 4 -4 9 7 17 15 17 17 0 8 -8 3 -21 -13z"/>
<path d="M2990 7605 c-7 -9 -11 -17 -9 -20 3 -2 10 5 17 15 14 24 10 26 -8 5z"/>
<path d="M4105 7509 c-4 -12 -3 -25 2 -30 5 -5 10 4 11 21 3 35 -4 39 -13 9z"/>
<path d="M6502 7310 c0 -14 2 -19 5 -12 2 6 2 18 0 25 -3 6 -5 1 -5 -13z"/>
<path d="M4121 7185 c-17 -20 -31 -41 -31 -48 1 -7 7 0 16 15 8 16 20 25 28
22 7 -3 19 2 26 11 11 13 10 14 -6 8 -17 -6 -17 -5 -5 10 26 32 3 17 -28 -18z"/>
<path d="M5492 7098 c7 -19 35 -21 35 -3 0 8 -9 15 -19 15 -11 0 -18 -5 -16
-12z"/>
<path d="M5270 7010 c34 -11 122 -12 138 -1 7 4 -25 8 -75 8 -57 1 -79 -2 -63
-7z"/>
<path d="M5438 7013 c7 -3 16 -2 19 1 4 3 -2 6 -13 5 -11 0 -14 -3 -6 -6z"/>
<path d="M5043 6999 c-12 -5 -3 -8 25 -8 24 -1 41 3 37 8 -6 11 -34 11 -62 0z"/>
<path d="M5178 7003 c7 -3 16 -2 19 1 4 3 -2 6 -13 5 -11 0 -14 -3 -6 -6z"/>
<path d="M5498 7003 c6 -2 18 -2 25 0 6 3 1 5 -13 5 -14 0 -19 -2 -12 -5z"/>
<path d="M5428 6993 c7 -3 16 -2 19 1 4 3 -2 6 -13 5 -11 0 -14 -3 -6 -6z"/>
<path d="M4816 6965 c4 -8 7 -15 9 -15 2 0 5 7 9 15 3 9 0 15 -9 15 -9 0 -12
-6 -9 -15z"/>
<path d="M4845 6960 c-3 -5 1 -10 10 -10 9 0 13 5 10 10 -3 6 -8 10 -10 10 -2
0 -7 -4 -10 -10z"/>
<path d="M3920 6920 c0 -5 5 -10 11 -10 5 0 7 5 4 10 -3 6 -8 10 -11 10 -2 0
-4 -4 -4 -10z"/>
<path d="M4161 6874 c0 -11 3 -14 6 -6 3 7 2 16 -1 19 -3 4 -6 -2 -5 -13z"/>
<path d="M4520 6879 c0 -5 5 -7 10 -4 6 3 10 8 10 11 0 2 -4 4 -10 4 -5 0 -10
-5 -10 -11z"/>
<path d="M4459 6793 c-13 -16 -12 -17 4 -4 16 13 21 21 13 21 -2 0 -10 -8 -17
-17z"/>
<path d="M2101 5794 c0 -11 3 -14 6 -6 3 7 2 16 -1 19 -3 4 -6 -2 -5 -13z"/>
<path d="M6196 5703 c-6 -14 -5 -15 5 -6 7 7 10 15 7 18 -3 3 -9 -2 -12 -12z"/>
<path d="M2095 5650 c3 -5 8 -10 11 -10 2 0 4 5 4 10 0 6 -5 10 -11 10 -5 0
-7 -4 -4 -10z"/>
<path d="M2087 5583 c-4 -3 -7 -13 -7 -21 0 -18 13 -7 16 13 2 17 1 18 -9 8z"/>
<path d="M2086 5533 c5 -5 12 -12 16 -18 4 -6 8 -2 8 8 0 9 -7 17 -17 17 -9 0
-12 -3 -7 -7z"/>
<path d="M2063 5365 c0 -22 2 -30 4 -17 2 12 2 30 0 40 -3 9 -5 -1 -4 -23z"/>
<path d="M5940 5320 c-6 -11 -8 -20 -6 -20 3 0 10 9 16 20 6 11 8 20 6 20 -3
0 -10 -9 -16 -20z"/>
<path d="M2062 5270 c0 -14 2 -19 5 -12 2 6 2 18 0 25 -3 6 -5 1 -5 -13z"/>
<path d="M2860 5189 c0 -11 5 -17 10 -14 6 3 10 13 10 21 0 8 -4 14 -10 14 -5
0 -10 -9 -10 -21z"/>
<path d="M2861 5024 c0 -11 3 -14 6 -6 3 7 2 16 -1 19 -3 4 -6 -2 -5 -13z"/>
<path d="M5525 4978 l-20 -21 22 12 c23 12 40 31 26 30 -4 0 -17 -10 -28 -21z"/>
<path d="M5349 4833 c-13 -16 -12 -17 4 -4 9 7 17 15 17 17 0 8 -8 3 -21 -13z"/>
<path d="M4846 4385 c-16 -12 -17 -15 -4 -15 8 0 21 7 28 15 16 19 1 19 -24 0z"/>
<path d="M4805 4349 c-11 -17 -2 -18 19 -3 17 12 17 14 4 14 -9 0 -20 -5 -23
-11z"/>
<path d="M3816 4253 c-6 -14 -5 -15 5 -6 7 7 10 15 7 18 -3 3 -9 -2 -12 -12z"/>
<path d="M2842 4132 c-1 -34 1 -43 8 -32 12 18 13 67 2 74 -5 3 -9 -16 -10
-42z"/>
<path d="M4405 4070 c-4 -6 -11 -7 -17 -4 -6 4 -8 2 -4 -4 3 -6 -2 -13 -11
-15 -15 -4 -15 -5 -2 -6 9 0 24 8 34 19 10 11 15 20 12 20 -3 0 -9 -5 -12 -10z"/>
<path d="M2897 3963 c-3 -5 0 -19 8 -29 15 -20 18 -11 6 20 -4 11 -10 15 -14
9z"/>
<path d="M3060 3896 c0 -17 14 -29 23 -20 8 8 -3 34 -14 34 -5 0 -9 -6 -9 -14z"/>
<path d="M3115 3900 c4 -6 11 -8 16 -5 14 9 11 15 -7 15 -8 0 -12 -5 -9 -10z"/>
<path d="M2852 3800 c0 -19 2 -27 5 -17 2 9 2 25 0 35 -3 9 -5 1 -5 -18z"/>
<path d="M4648 3640 c22 -22 45 -40 53 -40 7 0 -7 18 -32 40 -57 52 -73 52
-21 0z"/>
<path d="M2983 3623 c-7 -2 -13 -9 -13 -15 0 -7 5 -7 13 1 8 6 18 7 22 3 5 -4
5 -1 1 6 -4 6 -8 12 -9 11 -1 0 -8 -3 -14 -6z"/>
<path d="M4721 3569 c11 -11 23 -18 26 -15 3 3 -2 12 -10 21 -9 8 -20 15 -26
15 -6 0 -2 -9 10 -21z"/>
<path d="M2852 3510 c0 -19 2 -27 5 -17 2 9 2 25 0 35 -3 9 -5 1 -5 -18z"/>
<path d="M3037 3436 c-15 -12 -16 -18 -7 -35 14 -27 20 -27 13 -1 -3 11 0 27
7 35 15 19 11 19 -13 1z"/>
<path d="M3841 3396 c2 -2 18 -6 34 -10 22 -5 26 -4 15 4 -14 9 -59 15 -49 6z"/>
<path d="M3922 3383 c6 -7 16 -13 24 -13 7 0 21 -8 30 -17 15 -16 17 -16 12
-2 -4 9 -1 22 5 28 8 8 6 11 -7 11 -10 0 -14 -4 -10 -12 5 -8 2 -9 -10 -5 -10
4 -23 7 -29 7 -7 0 -6 4 3 10 12 7 10 9 -7 7 -17 -1 -19 -4 -11 -14z"/>
<path d="M3365 3363 c-16 -2 -40 -9 -53 -15 -18 -9 -28 -9 -43 0 -15 10 -19
10 -19 -2 0 -15 34 -31 48 -22 5 3 9 -1 9 -8 0 -8 -7 -12 -15 -8 -11 4 -13 1
-7 -8 6 -9 4 -11 -4 -6 -8 5 -14 0 -18 -13 -4 -16 -11 -20 -25 -15 -14 4 -18
2 -14 -5 4 -6 2 -11 -3 -11 -6 0 -11 5 -11 10 0 6 -4 10 -10 10 -5 0 -10 -9
-10 -20 0 -18 -3 -19 -22 -10 -22 11 -22 10 -4 -4 23 -18 36 -20 36 -6 0 5 22
12 50 16 30 4 47 11 43 17 -3 5 -2 7 4 4 5 -3 40 -1 77 5 50 8 73 8 92 -1 31
-14 45 -7 17 8 -22 11 -88 14 -148 6 -31 -5 -36 -4 -23 5 9 6 15 17 12 25 -5
11 1 15 20 15 14 0 26 -4 26 -10 0 -5 5 -10 11 -10 5 0 7 5 3 11 -4 8 0 9 15
4 12 -4 46 3 81 15 43 15 75 20 108 16 65 -7 124 -25 117 -37 -4 -5 -3 -9 2
-10 4 0 29 -3 54 -5 32 -4 49 -1 58 10 10 12 7 14 -18 12 -16 -1 -28 2 -25 6
3 4 12 8 20 8 8 0 14 5 14 10 0 7 -8 7 -22 -1 -16 -9 -23 -9 -26 0 -5 15 -35
14 -50 -1 -9 -9 -12 -9 -12 3 0 13 -23 16 -152 16 -84 0 -166 -1 -183 -4z m85
-17 c0 -2 -7 -6 -15 -10 -8 -3 -15 -1 -15 4 0 6 7 10 15 10 8 0 15 -2 15 -4z
m295 -14 c-3 -3 -11 0 -18 7 -9 10 -8 11 6 5 10 -3 15 -9 12 -12z"/>
<path d="M3870 3361 c0 -9 30 -24 36 -18 2 1 -6 8 -16 15 -11 7 -20 8 -20 3z"/>
<path d="M3509 3282 c6 -11 7 -23 3 -27 -4 -4 13 -4 38 0 64 11 162 8 170 -6
9 -14 197 -89 205 -81 3 3 5 0 5 -6 0 -7 7 -12 15 -12 8 0 15 -5 15 -10 0 -6
3 -9 8 -8 15 4 50 -13 56 -27 3 -8 11 -15 18 -15 9 0 8 3 -2 10 -8 5 -10 10
-4 10 15 0 36 -25 28 -33 -3 -3 2 -3 13 -1 10 3 27 -2 38 -11 11 -9 13 -13 5
-9 -9 4 -12 3 -7 -2 5 -5 13 -10 18 -10 5 -1 14 -2 19 -3 6 0 9 -7 8 -13 -2
-7 5 -12 14 -12 9 1 15 -4 12 -10 -2 -6 15 -22 38 -36 22 -14 122 -105 222
-204 99 -98 184 -178 188 -177 5 0 7 -3 5 -8 -4 -16 85 -112 99 -107 8 3 14 1
14 -4 0 -6 -5 -10 -11 -10 -6 0 2 -18 18 -39 15 -22 31 -37 35 -34 5 2 8 0 8
-4 0 -5 9 -9 20 -10 11 -1 20 2 20 7 0 4 8 11 18 14 10 4 6 -3 -10 -18 -26
-23 -30 -56 -6 -56 5 0 6 -4 3 -10 -3 -5 -2 -10 3 -10 5 0 14 -11 20 -25 15
-32 163 -224 191 -247 27 -23 30 -22 28 2 -1 11 -7 20 -14 20 -7 0 -13 7 -13
16 0 9 -8 23 -17 31 -10 8 -12 12 -5 8 6 -3 12 -2 12 3 0 6 10 6 24 -1 13 -6
21 -17 19 -24 -3 -7 -3 -13 0 -13 3 0 10 14 16 32 6 17 8 29 5 25 -3 -3 -19
10 -36 29 -22 24 -36 33 -53 30 -24 -5 -54 22 -47 43 2 7 -3 11 -13 9 -10 -2
-20 4 -22 12 -4 13 -3 13 6 0 6 -8 11 -12 11 -7 0 10 -22 47 -42 71 -10 10
-15 23 -12 28 3 4 0 8 -7 8 -9 0 -9 3 0 14 9 11 9 16 0 22 -7 4 -9 3 -5 -4 6
-11 -9 -25 -32 -28 -7 -1 -4 8 7 23 l20 24 -37 53 c-20 29 -44 62 -53 74 -10
14 -23 20 -37 17 -11 -2 -27 4 -34 13 -9 11 -9 14 -1 8 9 -5 11 -2 7 8 -3 9
-9 15 -12 14 -21 -2 -31 4 -37 23 -6 16 -10 18 -18 9 -9 -10 -9 -14 1 -17 6
-3 9 -10 6 -15 -4 -6 -2 -8 3 -5 6 4 16 0 22 -7 10 -12 8 -13 -8 -9 -30 8 -44
29 -39 58 3 14 1 28 -4 31 -4 3 -7 0 -6 -7 2 -6 -3 -14 -10 -16 -12 -4 -12 -1
-1 18 7 13 12 27 11 32 -4 14 17 7 27 -10 6 -10 10 -13 10 -8 0 15 -126 145
-133 138 -3 -4 -6 1 -6 11 0 9 -4 14 -10 11 -5 -3 -10 1 -10 9 0 8 -5 18 -10
21 -6 4 -9 1 -8 -5 2 -7 -5 -14 -14 -15 -10 -2 -16 2 -15 8 1 7 -4 11 -12 9
-11 -2 -12 0 -3 10 9 11 7 14 -9 15 -27 2 -51 22 -42 36 3 6 1 7 -5 3 -7 -4
-35 17 -67 48 -30 31 -71 62 -90 70 -19 8 -46 26 -60 40 -13 14 -27 21 -30 16
-3 -4 0 -11 5 -13 6 -3 5 -4 -2 -3 -7 2 -12 11 -12 20 2 14 -1 15 -14 4 -14
-12 -14 -10 -3 10 7 13 10 26 7 30 -3 3 -6 0 -6 -8 0 -9 -3 -10 -13 -1 -8 6
-17 8 -20 4 -4 -3 -7 -1 -7 5 0 7 -3 11 -7 10 -7 -1 -110 49 -196 94 -60 33
-132 47 -260 53 -125 6 -128 6 -118 -13z m1032 -499 c13 -16 12 -17 -3 -4 -10
7 -18 15 -18 17 0 8 8 3 21 -13z m80 -81 c-7 -2 -18 1 -23 6 -8 8 -4 9 13 5
13 -4 18 -8 10 -11z m137 -181 c-4 9 -1 16 8 16 8 0 14 -6 14 -14 0 -7 -4 -13
-10 -13 -5 0 -10 -5 -10 -11 0 -6 7 -9 15 -6 8 4 17 1 21 -5 4 -7 3 -8 -4 -4
-7 4 -12 3 -12 -2 0 -9 40 -47 53 -49 5 -1 12 -5 15 -9 4 -4 1 -3 -7 1 -11 6
-13 4 -8 -9 4 -10 3 -15 -3 -11 -6 3 -10 0 -11 -7 0 -10 -2 -10 -6 0 -2 6 -10
9 -16 5 -9 -5 -9 -3 0 8 9 11 8 18 -3 33 -8 11 -14 14 -14 8 0 -7 -8 -12 -17
-12 -17 1 -17 1 0 11 16 10 16 12 -4 37 -11 15 -25 28 -30 28 -19 3 -20 4 -14
15 5 7 14 4 28 -8 17 -15 19 -15 15 -2z m300 -355 c7 -4 10 -11 7 -16 -3 -5
-1 -11 5 -15 5 -3 10 -11 10 -16 0 -6 -7 -3 -16 5 -8 9 -20 16 -25 16 -13 0
-40 26 -34 32 7 7 38 3 53 -6z"/>
<path d="M3360 3245 c-32 -18 -26 -18 30 -1 32 11 38 15 20 15 -14 0 -36 -6
-50 -14z"/>
<path d="M3253 3226 c-13 -6 -23 -14 -23 -19 0 -4 9 -3 20 3 11 6 25 8 30 5 5
-3 11 -1 14 4 9 14 -17 18 -41 7z"/>
<path d="M3956 3231 c-8 -12 20 -22 40 -14 13 5 13 7 2 14 -17 11 -35 11 -42
0z"/>
<path d="M3125 3220 c-4 -6 -11 -8 -16 -5 -5 4 -9 1 -9 -4 0 -6 4 -11 10 -11
5 0 7 -8 3 -17 -5 -15 -3 -14 10 2 8 11 13 24 9 29 -3 5 2 7 12 3 10 -4 15 -3
11 3 -8 13 -22 13 -30 0z"/>
<path d="M4315 3191 c-3 -6 -11 -9 -16 -6 -15 10 -10 -2 8 -16 9 -8 14 -9 10
-2 -4 6 -1 13 5 16 7 2 10 7 7 11 -4 4 -10 2 -14 -3z"/>
<path d="M2040 3159 c0 -5 5 -7 10 -4 6 3 10 8 10 11 0 2 -4 4 -10 4 -5 0 -10
-5 -10 -11z"/>
<path d="M2822 3150 c0 -14 2 -19 5 -12 2 6 2 18 0 25 -3 6 -5 1 -5 -13z"/>
<path d="M3165 3140 c-3 -5 -1 -10 4 -10 6 0 11 5 11 10 0 6 -2 10 -4 10 -3 0
-8 -4 -11 -10z"/>
<path d="M4365 3133 c-15 -12 -16 -14 -3 -10 9 3 19 1 22 -6 3 -9 5 -8 5 1 1
7 6 10 12 6 7 -4 10 -1 7 6 -6 20 -21 21 -43 3z"/>
<path d="M4440 2900 c0 -5 5 -10 11 -10 5 0 7 5 4 10 -3 6 -8 10 -11 10 -2 0
-4 -4 -4 -10z"/>
<path d="M4790 2730 c0 -5 5 -10 11 -10 5 0 7 5 4 10 -3 6 -8 10 -11 10 -2 0
-4 -4 -4 -10z"/>
<path d="M1630 2525 c-7 -9 -11 -17 -8 -20 2 -2 12 4 21 15 9 11 13 20 8 20
-5 0 -14 -7 -21 -15z"/>
<path d="M1545 2510 c-3 -5 -1 -10 4 -10 6 0 11 5 11 10 0 6 -2 10 -4 10 -3 0
-8 -4 -11 -10z"/>
<path d="M1515 2480 c-3 -5 -2 -10 4 -10 5 0 13 5 16 10 3 6 2 10 -4 10 -5 0
-13 -4 -16 -10z"/>
<path d="M1553 2444 c-29 -28 -36 -39 -18 -26 32 21 83 72 73 72 -4 0 -28 -21
-55 -46z"/>
<path d="M1485 2450 c-3 -5 -1 -10 4 -10 6 0 11 5 11 10 0 6 -2 10 -4 10 -3 0
-8 -4 -11 -10z"/>
<path d="M5070 2226 c0 -2 8 -10 18 -17 15 -13 16 -12 3 4 -13 16 -21 21 -21
13z"/>
<path d="M774 2135 c-21 -19 -34 -34 -28 -35 5 0 25 16 44 35 43 45 35 45 -16
0z"/>
<path d="M2532 2075 c-17 -37 -14 -45 4 -12 9 16 14 31 11 33 -2 2 -9 -7 -15
-21z"/>
<path d="M5230 2093 c0 -12 28 -38 34 -32 2 2 -5 13 -15 23 -11 11 -19 15 -19
9z"/>
<path d="M5125 2082 c-16 -12 -3 -78 14 -68 4 3 13 1 21 -4 11 -7 11 -11 1
-24 -9 -11 -10 -16 -2 -16 6 0 11 5 11 11 0 5 5 7 10 4 17 -10 11 1 -20 40
-17 21 -28 45 -26 52 6 15 5 16 -9 5z"/>
<path d="M1124 2018 c-29 -31 -29 -31 -2 -12 15 10 29 25 32 32 8 18 2 15 -30
-20z"/>
<path d="M5290 2028 c0 -9 7 -19 16 -22 9 -4 14 -13 10 -22 -3 -8 -2 -12 4 -9
16 10 12 30 -10 50 -17 15 -20 16 -20 3z"/>
<path d="M5100 2005 c-7 -9 -10 -18 -7 -21 3 -3 10 4 17 15 13 25 8 27 -10 6z"/>
<path d="M2449 1975 c-1 -5 -1 -14 0 -19 1 -4 -4 -14 -10 -22 -6 -8 -8 -14 -3
-14 5 0 2 -5 -6 -10 -9 -6 -10 -10 -3 -10 17 0 42 55 32 71 -5 8 -9 10 -10 4z"/>
<path d="M5200 1949 c0 -5 5 -7 10 -4 6 3 10 8 10 11 0 2 -4 4 -10 4 -5 0 -10
-5 -10 -11z"/>
<path d="M5203 1872 c2 -12 6 -24 10 -28 3 -4 4 4 2 16 -6 30 -16 40 -12 12z"/>
<path d="M883 1817 c5 -14 3 -16 -12 -8 -14 8 -17 6 -16 -11 2 -29 18 -33 37
-11 15 16 15 19 0 33 -14 13 -15 12 -9 -3z"/>
<path d="M7860 1820 c-9 -6 -10 -10 -3 -10 6 0 15 5 18 10 8 12 4 12 -15 0z"/>
<path d="M5270 1801 c0 -6 4 -13 10 -16 6 -3 7 1 4 9 -7 18 -14 21 -14 7z"/>
<path d="M7876 1787 c3 -10 9 -15 12 -12 3 3 0 11 -7 18 -10 9 -11 8 -5 -6z"/>
<path d="M5309 1757 c6 -8 9 -16 6 -19 -3 -2 2 -5 10 -5 13 0 13 3 -2 19 -19
21 -31 25 -14 5z"/>
<path d="M819 1733 c-13 -16 -12 -17 4 -4 9 7 17 15 17 17 0 8 -8 3 -21 -13z"/>
<path d="M5640 1616 c0 -2 8 -10 18 -17 15 -13 16 -12 3 4 -13 16 -21 21 -21
13z"/>
<path d="M630 1581 c-8 -6 -17 -8 -21 -5 -4 2 -10 0 -13 -5 -12 -19 10 -19 34
0 26 19 26 26 0 10z"/>
<path d="M5810 1460 c0 -12 30 -33 37 -26 3 3 1 6 -5 6 -6 0 -9 6 -6 13 3 8
-2 14 -11 14 -8 0 -15 -4 -15 -7z"/>
<path d="M7930 1243 c8 -3 24 -10 35 -15 20 -9 20 -9 1 6 -11 9 -27 16 -35 15
-14 0 -14 -1 -1 -6z"/>
<path d="M6037 1099 c7 -7 15 -10 18 -7 3 3 -2 9 -12 12 -14 6 -15 5 -6 -5z"/>
<path d="M6506 1089 c3 -5 0 -9 -6 -9 -6 0 -19 -7 -28 -16 -15 -15 -14 -16 7
-9 14 4 21 3 18 -2 -3 -5 3 -9 15 -9 12 1 23 -5 25 -11 3 -8 -5 -13 -19 -14
-22 0 -22 -1 -3 -9 28 -12 35 -12 33 1 -2 6 3 14 11 17 10 3 13 -1 9 -16 -5
-18 1 -20 70 -27 42 -4 95 -13 118 -20 24 -7 48 -9 55 -4 10 6 5 9 -16 10
l-30 1 30 8 c21 5 24 8 10 9 -11 2 -38 4 -60 6 -113 9 -165 33 -62 28 34 -2
68 -5 75 -8 6 -2 12 -1 12 3 0 4 -33 15 -72 24 -40 8 -101 25 -135 36 -35 11
-60 16 -57 11z m99 -69 c-3 -5 -12 -10 -18 -10 -7 0 -6 4 3 10 19 12 23 12 15
0z"/>
<path d="M6698 1053 c6 -2 18 -2 25 0 6 3 1 5 -13 5 -14 0 -19 -2 -12 -5z"/>
<path d="M7850 1046 c0 -2 11 -6 25 -8 14 -3 25 -1 25 3 0 5 -11 9 -25 9 -14
0 -25 -2 -25 -4z"/>
<path d="M6462 1021 c-11 -7 -11 -9 0 -14 9 -3 15 1 15 9 0 8 -1 14 -1 14 -1
0 -7 -4 -14 -9z"/>
<path d="M6918 1003 c12 -2 32 -2 45 0 12 2 2 4 -23 4 -25 0 -35 -2 -22 -4z"/>
<path d="M6850 991 c0 -11 31 -24 39 -16 3 3 -1 10 -9 15 -19 12 -30 12 -30 1z"/>
<path d="M6509 977 c7 -7 14 -8 21 -1 6 6 2 10 -12 11 -16 2 -18 -1 -9 -10z"/>
<path d="M6970 979 c0 -5 5 -7 10 -4 6 3 10 8 10 11 0 2 -4 4 -10 4 -5 0 -10
-5 -10 -11z"/>
<path d="M7610 980 c-23 -8 -22 -8 8 -7 17 1 32 5 32 9 0 9 -6 9 -40 -2z"/>
<path d="M6588 973 c6 -2 18 -2 25 0 6 3 1 5 -13 5 -14 0 -19 -2 -12 -5z"/>
<path d="M7500 960 c0 -5 5 -10 10 -10 6 0 10 5 10 10 0 6 -4 10 -10 10 -5 0
-10 -4 -10 -10z"/>
<path d="M7558 963 c7 -3 16 -2 19 1 4 3 -2 6 -13 5 -11 0 -14 -3 -6 -6z"/>
<path d="M6903 953 c9 -2 23 -2 30 0 6 3 -1 5 -18 5 -16 0 -22 -2 -12 -5z"/>
<path d="M6968 943 c7 -3 16 -2 19 1 4 3 -2 6 -13 5 -11 0 -14 -3 -6 -6z"/>
<path d="M7468 943 c7 -3 16 -2 19 1 4 3 -2 6 -13 5 -11 0 -14 -3 -6 -6z"/>
<path d="M1507 742 c-15 -16 -27 -31 -27 -35 0 -4 14 6 31 24 17 17 29 33 26
35 -2 2 -16 -9 -30 -24z"/>
<path d="M614 509 c-2 -4 4 -13 13 -20 12 -10 15 -10 9 -1 -5 8 1 16 16 21 22
9 22 10 -5 8 -16 -1 -30 -4 -33 -8z"/>
<path d="M701 443 c7 -12 15 -20 18 -17 3 2 -3 12 -13 22 -17 16 -18 16 -5 -5z"/>
<path d="M878 343 c7 -3 16 -2 19 1 4 3 -2 6 -13 5 -11 0 -14 -3 -6 -6z"/>
</g>
</svg>
